<svg xmlns="http://www.w3.org/2000/svg" width="416.501" height="67.237" viewBox="0 0 416.501 67.237"><defs><style>.a{fill:#fff;}.b{fill:#5f7def;}</style></defs><g transform="translate(321.064 27.931)"><path class="a" d="M432.271,141.293a5.475,5.475,0,0,1-7.644,0,5.383,5.383,0,0,1,3.817-9.21,5.246,5.246,0,0,1,3.827,1.555,5.437,5.437,0,0,1,0,7.655Zm-3.827-.185a3.566,3.566,0,1,0-2.558-1.044A3.5,3.5,0,0,0,428.444,141.108Z" transform="translate(-423.061 -128.256)"/><path class="a" d="M440.56,132.083a4.906,4.906,0,0,1,3.663,1.566,5.566,5.566,0,0,1,0,7.633,4.91,4.91,0,0,1-3.663,1.566,4.339,4.339,0,0,1-3.868-2.026v5.853H434.91V132.349h1.781v1.761A4.341,4.341,0,0,1,440.56,132.083Zm-.225,9.047a3.483,3.483,0,0,0,2.578-1.054,3.783,3.783,0,0,0,0-5.22,3.708,3.708,0,0,0-5.177,0,3.785,3.785,0,0,0,0,5.22A3.509,3.509,0,0,0,440.334,141.13Z" transform="translate(-422.017 -128.256)"/><path class="a" d="M448.112,138.284a3.371,3.371,0,0,0,1.258,2.128,3.915,3.915,0,0,0,2.446.757,3.206,3.206,0,0,0,2.948-1.494l1.514.86a5,5,0,0,1-4.5,2.312,5.353,5.353,0,0,1-3.96-1.525,5.229,5.229,0,0,1-1.525-3.859,5.29,5.29,0,0,1,1.494-3.847,5.156,5.156,0,0,1,3.868-1.535,4.708,4.708,0,0,1,3.674,1.587,5.522,5.522,0,0,1,1.422,3.817,5.322,5.322,0,0,1-.062.8Zm3.541-4.523a3.4,3.4,0,0,0-3.541,2.968h6.836a3.408,3.408,0,0,0-1.147-2.211A3.279,3.279,0,0,0,451.652,133.761Z" transform="translate(-421.013 -128.256)"/><path class="a" d="M462.878,132.083a3.806,3.806,0,0,1,2.886,1.136,4.273,4.273,0,0,1,1.085,3.081v6.283h-1.78V136.4a2.644,2.644,0,0,0-.676-1.935,2.5,2.5,0,0,0-1.863-.686,2.887,2.887,0,0,0-2.149.829,3.5,3.5,0,0,0-.818,2.548v5.423h-1.78V132.349h1.78v1.473A3.639,3.639,0,0,1,462.878,132.083Z" transform="translate(-420 -128.256)"/><path class="a" d="M474.039,132.393a4.906,4.906,0,0,1,3.663,1.566,5.566,5.566,0,0,1,0,7.633,4.91,4.91,0,0,1-3.663,1.566,4.34,4.34,0,0,1-3.868-2.026v1.761h-1.781V128.566h1.781v5.853A4.343,4.343,0,0,1,474.039,132.393Zm-.225,9.047a3.487,3.487,0,0,0,2.579-1.054,3.785,3.785,0,0,0,0-5.22,3.709,3.709,0,0,0-5.178,0,3.785,3.785,0,0,0,0,5.22A3.511,3.511,0,0,0,473.813,141.44Z" transform="translate(-419.065 -128.566)"/><path class="a" d="M488.815,132.349H490.6v10.234h-1.781v-1.761a4.34,4.34,0,0,1-3.868,2.026,4.909,4.909,0,0,1-3.663-1.566,5.566,5.566,0,0,1,0-7.633,4.9,4.9,0,0,1,3.663-1.566,4.343,4.343,0,0,1,3.868,2.026Zm-3.643,8.781a3.509,3.509,0,0,0,2.6-1.054,3.785,3.785,0,0,0,0-5.22,3.708,3.708,0,0,0-5.177,0,3.783,3.783,0,0,0,0,5.22A3.483,3.483,0,0,0,485.172,141.13Z" transform="translate(-418.062 -128.256)"/><path class="a" d="M497.3,132.083a3.807,3.807,0,0,1,2.887,1.136,4.277,4.277,0,0,1,1.084,3.081v6.283h-1.78V136.4a2.639,2.639,0,0,0-.676-1.935,2.493,2.493,0,0,0-1.862-.686,2.883,2.883,0,0,0-2.149.829,3.5,3.5,0,0,0-.818,2.548v5.423H492.2V132.349h1.781v1.473A3.638,3.638,0,0,1,497.3,132.083Z" transform="translate(-416.967 -128.256)"/><path class="a" d="M511.467,142.893h-2.211l-4.666-4.846v4.846h-1.781V128.566h1.781v8.6l4.42-4.506H511.3l-4.891,4.953Z" transform="translate(-416.032 -128.566)"/></g><path class="b" d="M161.624,117.065a19.475,19.475,0,0,1,19.453,19.453h14.166a33.619,33.619,0,1,0-33.618,33.618V155.97a19.453,19.453,0,1,1,0-38.906Z" transform="translate(-128.005 -102.898)"/><path class="b" d="M173.071,133.794H158.905a33.656,33.656,0,0,0,33.618,33.618V153.247A19.475,19.475,0,0,1,173.071,133.794Z" transform="translate(-125.281 -100.175)"/><path class="a" d="M220.544,156.076h5.375V140.433h17.734V135.32H225.919V123.841h22.666v-5.113H220.544Z" transform="translate(-119.848 -101.503)"/><path class="a" d="M360.972,145.892l-20.761-27.164H336.06v37.348h5.375V129.057l20.6,27.019h4.314V118.728h-5.375Z" transform="translate(-109.666 -101.503)"/><path class="a" d="M308.339,118.728l-14.925,37.348h5.725L311.27,125.67,323.4,156.076h5.725L314.2,118.728Z" transform="translate(-113.425 -101.503)"/><path class="a" d="M284.12,137.069a11.481,11.481,0,0,0-1.263-14.926,11.379,11.379,0,0,0-8.279-3.415H257.591v37.348h5.375V123.788h11.612a6.018,6.018,0,0,1,4.489,1.929,6.537,6.537,0,0,1,1.856,4.68,6.631,6.631,0,0,1-1.856,4.708,5.986,5.986,0,0,1-4.489,1.954h-4.152l11.126,19.016h5.979l-8.759-14.863A11.7,11.7,0,0,0,284.12,137.069Z" transform="translate(-116.582 -101.503)"/><path class="a" d="M406.054,152.083c.612-.5,1.211-1.018,1.78-1.569a19.354,19.354,0,1,0-16.5,6.015,11.34,11.34,0,0,0,5.064-.268,17.641,17.641,0,0,1-1.238-5.075,24.239,24.239,0,0,1-3.165-.073,13.923,13.923,0,1,1,8.278-1.571h-.056l0,.034,0,0h0a12.719,12.719,0,0,0,12.705,12.669V156.9A7.347,7.347,0,0,1,406.054,152.083Z" transform="translate(-106.293 -101.571)"/></svg>