<?xml version="1.0" encoding="utf-8"?>
<svg version="1.1" id="Layer_1" xmlns="http://www.w3.org/2000/svg" xmlns:xlink="http://www.w3.org/1999/xlink" x="0px" y="0px"
	 viewBox="0 0 46.4 50.2" style="enable-background:new 0 0 46.4 50.2;" xml:space="preserve">
<style type="text/css">
	.st0{fill:#5F7DEF;}
</style>
<g transform="translate(0 0)">
	<path class="st0" d="M36.7,50.2H3.9c-2.1,0-3.9-1.7-3.9-3.9l0,0v-4.8c0-0.5,0.4-1,1-1l0,0c0.5,0,1,0.4,1,1l0,0v4.8
		c0,1.1,0.9,1.9,1.9,1.9h32.9c1.1,0,1.9-0.9,1.9-1.9v-7.7H27c-1,0-2-0.4-2.7-1.1c-0.7-0.7-1.1-1.7-1.1-2.7V31c0-2.1,1.7-3.9,3.9-3.9
		h11.6v-7.7c0-1.1-0.9-1.9-1.9-1.9H3.9c-1.1,0-1.9,0.9-1.9,1.9v14.5c0,0.5-0.4,1-1,1c-0.5,0-1-0.4-1-0.9l0,0V19.3
		c0-2.1,1.7-3.9,3.9-3.9h9.7c0-1.9,0.7-3.7,1.9-5.1V4.8c0-0.5,0.4-0.9,1-0.9c0.5,0,1,0.4,1,0.9v4c3.7-2.1,8.4-0.9,10.6,2.8
		c0.7,1.2,1,2.5,1,3.9h7.7c2.1,0,3.9,1.7,3.9,3.9l0,0v7.7h1.9c1,0,2,0.4,2.7,1.1s1.1,1.7,1.1,2.7v3.8c0,2.1-1.7,3.9-3.9,3.9h-1.9
		v7.7C40.6,48.5,38.8,50.2,36.7,50.2z M27,29c-1.1,0-1.9,0.9-1.9,2v3.8c0,1.1,0.8,1.9,1.9,1.9h15.5c1.1,0,1.9-0.9,1.9-1.9V31
		c0-1.1-0.8-1.9-1.9-2l0,0H27L27,29z M21.2,11.6c2.1,0,3.9,1.7,3.9,3.9H27c-0.1-3.2-2.8-5.7-6-5.6c-3,0.1-5.5,2.5-5.6,5.6h1.9
		C17.4,13.3,19.1,11.6,21.2,11.6L21.2,11.6z M21.2,13.5c-1.1,0-1.9,0.9-1.9,1.9l0,0h3.9C23.2,14.4,22.3,13.5,21.2,13.5
		C21.3,13.5,21.3,13.5,21.2,13.5L21.2,13.5z M33.8,44.4H28c-0.5,0-0.9-0.4-0.9-1c0-0.5,0.4-1,0.9-1h5.9c0.5,0,0.9,0.4,0.9,1
		C34.8,44,34.4,44.4,33.8,44.4L33.8,44.4z M29,34.8c-1.1,0-1.9-0.9-1.9-1.9S28,31,29,31s1.9,0.9,1.9,1.9C30.9,33.9,30,34.8,29,34.8
		L29,34.8z M26.1,5.8c-0.5,0-1-0.4-1-0.9V1c0-0.5,0.4-1,1-1c0.5,0,1,0.4,1,0.9v3.9C27,5.4,26.6,5.8,26.1,5.8L26.1,5.8z"/>
</g>
</svg>
