<?xml version="1.0" encoding="utf-8"?>
<svg version="1.1" id="Layer_1" xmlns="http://www.w3.org/2000/svg" xmlns:xlink="http://www.w3.org/1999/xlink" x="0px" y="0px"
	 viewBox="0 0 50.2 48.3" style="enable-background:new 0 0 50.2 48.3;" xml:space="preserve">
<style type="text/css">
	.st0{fill:#FFFFFF;}
</style>
<g transform="translate(0 0)">
	<path class="st0" d="M49.3,48.3H1c-0.5,0-1-0.4-1-0.9s0.4-1,0.9-1c0,0,0,0,0.1,0h48.3c0.5,0,1,0.4,1,0.9S49.9,48.3,49.3,48.3
		L49.3,48.3z M46.4,44.4H3.9c-2.1,0-3.9-1.7-3.9-3.9l0,0v-29c0-2.1,1.7-3.9,3.9-3.9l0,0h42.5c2.1,0,3.9,1.7,3.9,3.9l0,0v29
		C50.2,42.7,48.5,44.4,46.4,44.4L46.4,44.4L46.4,44.4z M1.9,23.6v17c0,1.1,0.9,1.9,1.9,1.9h42.5c1.1,0,1.9-0.9,1.9-1.9l0,0v-17
		l-17.4,5.9v2.4c0,1.6-1.3,2.9-2.9,2.9l0,0h-5.8c-1.6,0-2.9-1.3-2.9-2.9l0,0v-2.4L1.9,23.6z M22.2,25.1c-0.5,0-1,0.4-1,1l0,0v5.8
		c0,0.5,0.4,1,1,1l0,0H28c0.5,0,1-0.4,1-1l0,0v-5.8c0-0.5-0.4-1-1-1l0,0C28,25.1,22.2,25.1,22.2,25.1z M22.2,23.2H28
		c1.6,0,2.9,1.3,2.9,2.9l0,0v1.4l17.4-5.9v-9.9c0-1.1-0.9-1.9-1.9-1.9l0,0H3.9C2.8,9.8,2,10.7,2,11.7v9.9l17.4,5.9v-1.4
		C19.3,24.5,20.6,23.2,22.2,23.2L22.2,23.2z M26.1,29.9h-2c-0.5,0-1-0.4-1-1c0-0.5,0.4-1,0.9-1h2c0.5,0,1,0.4,1,1
		C27.1,29.5,26.6,29.9,26.1,29.9L26.1,29.9z M31.9,5.8L31.9,5.8c-0.4,0-0.7-0.2-0.9-0.5c-1.1-2.3-3-3.4-5.9-3.4S20.3,3,19.2,5.3
		C19,5.8,18.4,6,17.9,5.7c-0.5-0.2-0.7-0.8-0.4-1.3c0.7-1.4,1.7-2.5,3-3.3c2.9-1.5,6.3-1.5,9.2,0c1.3,0.8,2.4,1.9,3,3.3
		c0.2,0.5,0.1,1.1-0.4,1.3C32.2,5.8,32,5.8,31.9,5.8L31.9,5.8z"/>
</g>
</svg>
