<?xml version="1.0" encoding="utf-8"?>
<svg version="1.1" id="Layer_1" xmlns="http://www.w3.org/2000/svg" xmlns:xlink="http://www.w3.org/1999/xlink" x="0px" y="0px"
	 viewBox="0 0 50.2 46.4" style="enable-background:new 0 0 50.2 46.4;" xml:space="preserve">
<style type="text/css">
	.st0{fill:#5F7DEF;}
</style>
<g transform="translate(0 0)">
	<path class="st0" d="M49.3,46.4h-9.7c-0.5,0-1-0.4-1-1s0.4-1,1-1h9.7c0.5,0,1,0.4,1,1S49.8,46.4,49.3,46.4z M33.8,46.4H1
		c-0.5,0-1-0.4-1-1c0-0.5,0.4-1,1-1h32.8c0.5,0,1,0.4,1,1C34.8,45.9,34.3,46.4,33.8,46.4L33.8,46.4z M42.5,42.5L42.5,42.5
		c-2.1,0-3.9-1.7-3.9-3.8V3.8c0-2.1,1.7-3.8,3.9-3.8h0c2.1,0,3.9,1.7,3.9,3.8v34.8C46.4,40.8,44.6,42.5,42.5,42.5L42.5,42.5z
		 M42.5,1.9c-1.1,0-1.9,0.9-1.9,1.9v34.8c0,1.1,0.9,1.9,1.9,1.9s1.9-0.9,1.9-1.9V3.8C44.4,2.8,43.6,1.9,42.5,1.9z M30.9,42.5
		L30.9,42.5c-2.1,0-3.9-1.7-3.9-3.9V19.3c0-2.1,1.7-3.9,3.9-3.9s3.9,1.7,3.9,3.9v19.3c0,1-0.4,2-1.1,2.7
		C32.9,42.1,31.9,42.5,30.9,42.5z M30.9,17.4c-1.1,0-1.9,0.9-1.9,1.9l0,0v19.3c0,1.1,0.9,1.9,1.9,1.9s1.9-0.9,1.9-1.9V19.3
		C32.8,18.3,32,17.4,30.9,17.4z M19.3,42.5L19.3,42.5c-2.1,0-3.9-1.7-3.9-3.9v-27c0-2.1,1.7-3.9,3.9-3.9s3.9,1.7,3.9,3.9v27
		C23.2,40.8,21.5,42.5,19.3,42.5z M19.3,9.7c-1.1,0-1.9,0.9-1.9,1.9l0,0v27c0,1.1,0.9,1.9,1.9,1.9s1.9-0.9,1.9-1.9v-27
		C21.2,10.5,20.4,9.7,19.3,9.7z M7.7,42.5L7.7,42.5c-2.1,0-3.9-1.7-3.9-3.9V27c0-2.1,1.7-3.9,3.9-3.9l0,0h0c2.1,0,3.9,1.7,3.9,3.9
		v11.6c0,1-0.4,2-1.1,2.7C9.7,42.1,8.8,42.5,7.7,42.5z M7.7,25.1c-1.1,0-1.9,0.9-1.9,1.9v11.6c0,1.1,0.9,1.9,1.9,1.9
		s1.9-0.9,1.9-1.9V27C9.7,26,8.8,25.1,7.7,25.1z"/>
</g>
</svg>
