<?xml version="1.0" encoding="utf-8"?>
<svg version="1.1" id="Layer_1" xmlns="http://www.w3.org/2000/svg" xmlns:xlink="http://www.w3.org/1999/xlink" x="0px" y="0px"
	 viewBox="0 0 50.2 42.5" style="enable-background:new 0 0 50.2 42.5;" xml:space="preserve">
<style type="text/css">
	.st0{fill:#5F7DEF;}
</style>
<g transform="translate(0 0)">
	<path class="st0" d="M46.4,42.5H15.4c-2.1,0-3.9-1.7-3.9-3.9v-6.8c0-0.5,0.4-1,1-1c0.5,0,1,0.4,1,0.9c0,0,0,0,0,0v6.8
		c0,1.1,0.9,1.9,1.9,1.9h30.9c1.1,0,1.9-0.9,1.9-1.9V19.3c0-1.1-0.9-1.9-1.9-1.9h-2.9c-0.5,0-1-0.4-1-1c0-0.5,0.4-1,1-1l0,0h2.9
		c2.1,0,3.9,1.7,3.9,3.9v19.3C50.2,40.8,48.5,42.5,46.4,42.5z M43.5,36.7H18.4c-0.5,0-1-0.4-1-1c0-0.5,0.4-1,1-1l0,0h25.1
		c0.5,0,1,0.4,1,1C44.4,36.3,44,36.7,43.5,36.7C43.5,36.7,43.5,36.7,43.5,36.7L43.5,36.7z M34.8,27H3.9C1.7,27,0,25.3,0,23.2V3.9
		C0,1.7,1.7,0,3.9,0h30.9c2.1,0,3.9,1.7,3.9,3.9v19.3C38.6,25.3,36.9,27,34.8,27L34.8,27z M3.9,1.9c-1.1,0-1.9,0.9-1.9,1.9v19.3
		c0,1.1,0.9,1.9,1.9,1.9h30.9c1.1,0,1.9-0.9,1.9-1.9V3.9c0-1.1-0.9-1.9-1.9-1.9H3.9z M13.5,19.3c-3.2,0-5.8-2.6-5.8-5.8
		c0-3.2,2.6-5.8,5.8-5.8s5.8,2.6,5.8,5.8v0C19.3,16.7,16.7,19.3,13.5,19.3L13.5,19.3z M13.5,9.7c-2.1,0-3.9,1.7-3.9,3.9
		c0,2.1,1.7,3.9,3.9,3.9c2.1,0,3.9-1.7,3.9-3.9C17.4,11.4,15.7,9.7,13.5,9.7L13.5,9.7z"/>
</g>
</svg>
