<?xml version="1.0" encoding="utf-8"?>
<svg version="1.1" id="Layer_1" xmlns="http://www.w3.org/2000/svg" xmlns:xlink="http://www.w3.org/1999/xlink" x="0px" y="0px"
	 viewBox="0 0 48.2 50.2" style="enable-background:new 0 0 48.2 50.2;" xml:space="preserve">
<style type="text/css">
	.st0{fill:#5F7DEF;}
</style>
<g transform="translate(0)">
	<path class="st0" d="M24.1,50.2c-9.8,0-16.8-7.4-20.9-22C1.9,23.4,1,18.4,0.5,13.4c-0.2-1.6-0.3-3.3-0.4-4.9C0,7.9,0,7.3,0,6.7
		C0,6,0.2,5.3,0.7,4.8C1.2,4.3,1.9,4,2.6,4c0.1,0,0.2,0,0.4,0c0,0,0.3,0.1,1,0.1c0.9,0.1,1.8,0.1,2.8,0.1c1.9,0,3.8-0.2,5.7-0.5
		l0.1,0c2.1-0.4,4.2-0.9,6.3-1.7c1.2-0.4,2.4-0.9,3.5-1.4c0.5-0.2,0.9-0.4,1.4-0.6C23.8,0,23.9,0,24.1,0h0h0c0.1,0,0.3,0,0.4,0.1
		c0.2,0.1,0.6,0.3,1.4,0.6c1.2,0.5,2.3,1,3.5,1.4c2,0.7,4.1,1.3,6.3,1.7l0.1,0c1.9,0.3,3.8,0.5,5.7,0.5c1,0,1.9,0,2.8-0.1
		c0.4,0,0.7-0.1,1-0.1c0.1,0,0.2,0,0.3,0c0.7,0,1.4,0.3,1.9,0.8C48,5.3,48.3,6,48.2,6.6c0,0.6,0,1.3-0.1,1.9
		c-0.1,1.6-0.2,3.2-0.4,4.9c-0.5,5-1.4,10-2.8,14.8C40.9,42.8,33.8,50.2,24.1,50.2z M2.6,5.9C2.4,5.9,2.2,6,2.1,6.1
		C2,6.2,1.9,6.4,1.9,6.6C1.9,7,2,7.7,2,8.4c0.1,1.5,0.2,3.1,0.4,4.8c0.5,4.9,1.4,9.8,2.7,14.5c1.9,6.6,4.3,11.7,7.4,15.2
		c1.5,1.7,3.2,3.1,5.2,4.1c4,1.9,8.7,1.9,12.7,0c2-1,3.8-2.4,5.3-4.1c3.1-3.4,5.6-8.5,7.4-15.2c1.3-4.8,2.2-9.6,2.7-14.5
		c0.2-1.6,0.3-3.3,0.4-4.8c0.1-1,0.1-1.6,0.1-1.8c0-0.2,0-0.4-0.2-0.5C46,6,45.9,5.9,45.7,5.9c0,0-0.1,0-0.1,0
		c-0.1,0-0.5,0.1-1.1,0.1c-1,0.1-2,0.1-3,0.1c-2,0-4-0.2-6-0.5l-0.1,0c-2.2-0.4-4.4-1-6.6-1.8c-1.6-0.6-3.2-1.2-4.7-1.9
		c-1.5,0.7-3.1,1.3-4.7,1.9c-2.1,0.8-4.3,1.4-6.6,1.8l-0.1,0c-2,0.3-4,0.5-6,0.5c-1,0-2,0-3-0.1C3.2,6,2.8,5.9,2.7,5.9
		C2.6,5.9,2.6,5.9,2.6,5.9z M24.1,43.6L24.1,43.6c-3.3,0-6.3-1.5-8.3-4c-2.2-2.5-4-6.3-5.5-11.1c-1-3.3-1.7-6.7-2.1-10.1
		C8,17.3,7.9,16.1,7.8,15c0-0.4-0.1-0.8-0.1-1.2c-0.1-0.6,0.1-1.3,0.6-1.7c0.4-0.4,1-0.7,1.6-0.7H27c0.5,0,1,0.4,1,0.9
		c0,0.5-0.4,1-1,0.9H9.8c-0.1,0-0.1,0-0.2,0.1c-0.1,0.1-0.1,0.2-0.1,0.3c0,0.1,0,0.5,0.1,1.2c0.1,1,0.2,2.1,0.4,3.2
		c0.4,3.3,1.1,6.6,2.1,9.8c0.9,3.7,2.6,7.1,4.9,10.2c1.7,2.2,4.3,3.6,7,3.6l0,0c2.8-0.1,5.4-1.4,7-3.6c2.3-3,4-6.5,4.9-10.2
		c0.9-3.2,1.6-6.5,2.1-9.8c0.2-1.1,0.3-2.2,0.4-3.2c0.1-0.7,0.1-1.1,0.1-1.2c0-0.1,0-0.2-0.1-0.3c0,0-0.1-0.1-0.2-0.1h-3.6
		c-0.5,0-1-0.4-1-0.9c0-0.5,0.4-1,1-0.9l0,0h3.6c0.6,0,1.2,0.2,1.6,0.7c0.4,0.5,0.6,1.1,0.6,1.7c0,0.1,0,0.5-0.1,1.3
		c-0.1,1.1-0.2,2.2-0.4,3.3c-0.5,3.4-1.2,6.8-2.1,10.1c-1.4,4.9-3.3,8.6-5.5,11.1C30.4,42.1,27.3,43.6,24.1,43.6L24.1,43.6z"/>
</g>
</svg>
