<svg xmlns="http://www.w3.org/2000/svg" width="64.372" height="64.372" viewBox="0 0 64.372 64.372"><defs><style>.a,.b{fill:none;stroke:#f9f9f9;}.b{stroke-width:1.361px;}.c{fill:#f9f9f9;stroke:rgba(0,0,0,0);}</style></defs><g transform="translate(-231.875 -8288.397)"><g transform="translate(232.375 8288.897)"><circle class="a" cx="31.686" cy="31.686" r="31.686" transform="translate(0)"/><circle class="b" cx="30.7" cy="30.7" r="30.7" transform="translate(0.986 0.986)"/></g><g transform="translate(253.438 8305.396)"><path class="c" d="M209.98,7071.6H205.3a.367.367,0,0,0-.394.34.323.323,0,0,0,0,.053v14.823a.367.367,0,0,0,.342.394.186.186,0,0,0,.052,0h4.679a.367.367,0,0,0,.394-.34.323.323,0,0,0,0-.053v-14.823a.367.367,0,0,0-.34-.393A.2.2,0,0,0,209.98,7071.6Z" transform="translate(-204.906 -7063.796)"/><path class="c" d="M220.361,7071.062a8.495,8.495,0,0,0-4.6,1.478v-.312a.367.367,0,0,0-.34-.394.2.2,0,0,0-.054,0H210.69a.368.368,0,0,0-.4.341v14.881a.37.37,0,0,0,.342.4h4.735a.368.368,0,0,0,.394-.341.338.338,0,0,0,0-.054v-10.376c1.094-1.013,2.575-1.248,3.353-.394a2.483,2.483,0,0,1,.543,1.8v8.971a.369.369,0,0,0,.34.4h4.735a.372.372,0,0,0,.4-.341v-10.2C225.043,7071.84,222.078,7071.062,220.361,7071.062Z" transform="translate(-202.49 -7064.038)"/><path class="c" d="M207.637,7066.212a2.731,2.731,0,1,0,2.732,2.732A2.762,2.762,0,0,0,207.637,7066.212Z" transform="translate(-204.906 -7066.212)"/></g></g></svg>