<svg xmlns="http://www.w3.org/2000/svg" width="64.372" height="64.372" viewBox="0 0 64.372 64.372"><defs><style>.a,.b{fill:none;stroke:#f9f9f9;}.b{stroke-width:1.361px;}.c{fill:#f9f9f9;stroke:rgba(0,0,0,0);}</style></defs><g transform="translate(-140.5 -8288.397)"><g transform="translate(141 8288.897)"><circle class="a" cx="31.686" cy="31.686" r="31.686"/><circle class="b" cx="30.7" cy="30.7" r="30.7" transform="translate(0.986 0.986)"/></g><path class="c" d="M153.752,7071.835h3.127a.424.424,0,0,0,.448-.4.305.305,0,0,0,0-.052v-3.575a.421.421,0,0,0-.4-.445.233.233,0,0,0-.052,0h-3.573a5.686,5.686,0,0,0-5.808,5.561q0,.125,0,.246v4.021h-4.019a.424.424,0,0,0-.448.4v3.626a.422.422,0,0,0,.4.446h4.07v12.063a.422.422,0,0,0,.4.447h3.626a.422.422,0,0,0,.446-.4.3.3,0,0,0,0-.051v-12.062h4.021a.592.592,0,0,0,.446-.358l.894-3.574a.54.54,0,0,0-.09-.357.457.457,0,0,0-.358-.178h-4.913v-3.573A1.791,1.791,0,0,1,153.752,7071.835Z" transform="translate(20.782 1239.701)"/></g></svg>