<svg xmlns="http://www.w3.org/2000/svg" width="64.372" height="64.372" viewBox="0 0 64.372 64.372"><defs><style>.a,.b{fill:none;stroke:#f9f9f9;}.b{stroke-width:1.361px;}.c{fill:#f9f9f9;stroke:rgba(0,0,0,0);}</style></defs><g transform="translate(-414.623 -8288.397)"><g transform="translate(415.123 8288.897)"><circle class="a" cx="31.686" cy="31.686" r="31.686" transform="translate(0)"/><circle class="b" cx="30.7" cy="30.7" r="30.7" transform="translate(0.986 0.986)"/></g><path class="c" d="M352.532,7071l-5.9-.537a40.222,40.222,0,0,0-8.04,0l-5.9.537a3.788,3.788,0,0,0-3.486,3.752v10.718a3.79,3.79,0,0,0,3.484,3.757l5.9.536c1.251.09,2.681.178,4.021.178s2.77-.089,4.021-.178l5.9-.536a3.79,3.79,0,0,0,3.485-3.757V7074.75A3.788,3.788,0,0,0,352.532,7071Zm-4.825,9.024-8.045,4.467a.3.3,0,0,0-.18.09.337.337,0,0,1-.268-.09.361.361,0,0,1-.178-.358V7075.2a.469.469,0,0,1,.178-.359.413.413,0,0,1,.448,0l8.04,4.468a.374.374,0,0,1,0,.716Z" transform="translate(104.279 1240.999)"/></g></svg>