<svg xmlns="http://www.w3.org/2000/svg" width="64.372" height="64.372" viewBox="0 0 64.372 64.372"><defs><style>.a,.b{fill:none;}.a,.b,.c{stroke:#f9f9f9;}.b{stroke-width:1.361px;}.c{fill:#f9f9f9;stroke-width:0.681px;}</style></defs><g transform="translate(-323.248 -8288.397)"><g transform="translate(323.748 8288.897)"><circle class="a" cx="31.686" cy="31.686" r="31.686"/><circle class="b" cx="30.7" cy="30.7" r="30.7" transform="translate(0.986 0.986)"/></g><path class="c" d="M287.2,7067.366H271.762a5.924,5.924,0,0,0-5.916,5.916v15.435a5.922,5.922,0,0,0,5.916,5.916H287.2a5.916,5.916,0,0,0,5.916-5.916v-15.435A5.917,5.917,0,0,0,287.2,7067.366Zm4.373,21.351a4.373,4.373,0,0,1-4.373,4.373H271.762a4.372,4.372,0,0,1-4.373-4.372h0v-15.435a4.373,4.373,0,0,1,4.373-4.373H287.2a4.372,4.372,0,0,1,4.372,4.373Zm-12.09-13.633a5.915,5.915,0,1,0,5.914,5.914A5.914,5.914,0,0,0,279.48,7075.084Zm0,10.288a4.373,4.373,0,1,1,4.373-4.374,4.372,4.372,0,0,1-4.373,4.374Zm9.124-11.712a1.608,1.608,0,1,1-1.608-1.608,1.609,1.609,0,0,1,1.608,1.608Z" transform="translate(75.861 1239.701)"/></g></svg>