<?xml version="1.0" encoding="utf-8"?>
<svg version="1.1" id="Layer_1" xmlns="http://www.w3.org/2000/svg" xmlns:xlink="http://www.w3.org/1999/xlink" x="0px" y="0px"
	 viewBox="0 0 800 130" style="enable-background:new 0 0 800 130;" xml:space="preserve">
<style type="text/css">
	.st0{fill:#657BE6;}
	.st1{fill:#FEFEFE;}
	.st2{fill:#FCFCFC;}
	.st3{fill:#FDFDFD;}
	.st4{fill:#EDEDEE;}
	.st5{fill:#F4F4F5;}
	.st6{fill:#F7F7F8;}
	.st7{fill:#F4F4F4;}
	.st8{fill:#F3F3F4;}
	.st9{fill:#F8F8F8;}
	.st10{fill:#F7F7F7;}
</style>
<path class="st0" d="M117.8,64.9c-0.2,0-0.4,0-0.6,0c-3.7-0.1-7.9,0.9-11.1-0.5c-3.5-1.5-1.9-6.4-2.9-9.7
	c-5.2-17-21.8-28.4-39.1-26.5c-17.9,2-32.2,16.2-33.5,33.3c-1.4,18.1,9.8,34.3,27.2,39.2c9.9,2.8,9.9,2.8,9.9,13.3c0,3-0.3,6,0.1,9
	c0.7,5.4-1.3,6.7-6.5,5.9c-27.4-4-45.9-18.8-54.9-45.1C-5,50.2,17.3,10.7,51.7,3.1C88.8-5,120.7,14.6,130,51.4
	c3.4,13.5,3.4,13.5-9.9,13.5C119.3,64.9,118.6,64.9,117.8,64.9z"/>
<path class="st1" d="M553.4,32.2c12.7,0.7,24.4,7.2,30.9,21.1c6.4,13.8,4.6,26.9-4.5,39.2c-1.6,2.2-6.8,3.4-3.4,7.9
	c2.1,2.9,4.6,4.9,8.2,5.4c2.6,0.3,3.2,1.7,3.3,4.2c0.2,7-1,8-7.6,5.5c-8.4-3.2-14.1-8.9-16.1-18c-0.7-3.1-0.6-4.9,2.4-7
	c9.5-6.6,12.5-16.1,10.3-27.2c-2-10.3-8.8-16.8-18.7-19.7c-10.3-3-19.5,0.2-26.6,7.9c-7.1,7.8-8.9,17.2-4.9,27.2
	c4,9.9,11.6,15.4,22.2,16.6c4.3,0.5,7.6,4.5,6.9,8.7c-0.4,2.5-2.6,1.6-4,1.7c-16.4,1-32-11.1-36.2-27.8
	C509.6,54.7,527.2,32.1,553.4,32.2z"/>
<path class="st0" d="M131.8,115.6c0,0.6,0,1.1,0,1.7c0,12.4,0,12.4-12.1,10.6c-27-4.2-50.7-30.6-51.8-57.6c-0.2-4.1,0.8-6,5.1-5.4
	c1.7,0.2,3.4,0,5.1,0c4.9,0,10.2-1.2,14.5,0.4c5,1.7,2.5,8.1,4.2,12.2c5.6,13.7,15.7,21.8,30,24.3c4.1,0.7,5.5,2,5.1,6
	C131.6,110.3,131.8,113,131.8,115.6z"/>
<path class="st1" d="M482.5,85.5c0-16.6,0.2-31.6-0.1-46.6c-0.1-4.4,1.3-5.3,5.4-5.3c4.1,0,4.9,1.3,4.9,5.1
	c-0.2,20.3,0,40.5-0.1,60.8c0,1.8,1.3,4.7-1.5,5.2c-3.1,0.6-6.3,0.9-8.9-2.7C473.3,90,464,78.2,454.9,66.3
	c-2.9-3.8-5.8-7.5-9.7-12.6c0,16.2-0.2,30.7,0.1,45.2c0.1,5-1.2,6.5-6.2,6.2c-3.8-0.2-4.2-1.6-4.2-4.7c0.1-20.5,0-40.9,0.1-61.4
	c0-1.8-1.3-4.7,1.6-5.1c2.8-0.4,5.7-1,8.1,2.1c8.1,11,16.5,21.8,24.8,32.7C473.5,73.9,477.5,79.1,482.5,85.5z"/>
<path class="st2" d="M328.9,104.4c-10.4,1.5-10.4,1.5-14.9-6.2c-4.6-7.7-9.1-15.5-13.7-23.2c-3.5-5.9-3.5-6,3.2-6.3
	c5.5-0.2,9.8-2.3,12-7.7c2.1-5.2,1.1-9.9-2.6-14c-2.3-2.5-5.2-3.5-8.5-3.6c-6,0-12,0.2-18-0.1c-3.5-0.2-3.9,1.3-3.9,4.3
	c0.1,17.2-0.1,34.5,0.2,51.7c0.1,4.3-0.9,5.8-5.5,5.8c-4.5,0-5.2-1.7-5.1-5.6c0.2-20.2,0.2-40.5,0-60.7c0-3.8,0.9-5.3,4.9-5.2
	c9,0.3,18,0,27,0.1c10.9,0.2,19.3,6.4,22,15.9c2.9,9.9-0.9,19.5-10.5,25.5c-2.4,1.5-2.6,2.3-1.1,4.6
	C319.3,87.8,323.9,95.9,328.9,104.4z"/>
<path class="st3" d="M222.2,33.8c7.7,0,15.4,0.2,23.1-0.1c4.2-0.2,3.9,2.3,3.8,5c-0.1,2.6,0.7,5.1-3.7,5
	c-11.6-0.3-23.3,0.1-34.9-0.2c-4.1-0.1-5.2,1.2-4.9,5.1c0.3,3.9,0.3,7.9,0,11.8c-0.4,4.1,1.3,5,5.1,4.9c7.3-0.3,14.6-0.1,22-0.1
	c3.3,0,6.9-1.3,6.9,4.8c0.1,6.4-3.7,5.1-7.2,5.1c-7.1,0-14.3,0.2-21.4-0.1c-4.1-0.2-5.7,0.8-5.5,5.2c0.4,6.9-0.1,13.9,0.2,20.8
	c0.2,4.7-2.8,3.8-5.5,3.9c-2.7,0.1-5.1,0.4-5-3.8c0.2-21.2,0.1-42.4,0-63.6c0-3,1-3.9,3.9-3.8C206.8,33.9,214.5,33.8,222.2,33.8z"/>
<path class="st1" d="M380.6,47c-7.3,18.4-14.2,35.7-21.1,53c-1.7,4.4-7.1,6.7-11.1,4.9c-2.5-1.1-0.5-2.6-0.1-3.7
	c5-12.9,10.1-25.8,15.2-38.7c3.3-8.4,6.9-16.6,9.9-25.1c1.4-4,4-3.8,7-3.7c3.1,0.1,5.8-0.6,7.5,3.8c8.2,21.3,16.8,42.5,25.4,63.6
	c1.2,3,0.7,3.6-2.5,3.9c-5.3,0.5-7.8-1.5-9.7-6.5C394.6,81.6,387.7,64.8,380.6,47z"/>
<path class="st4" d="M758.4,71.1c0-1.5,0-3,0-4.5c0-3.5,0-3.5,4-3.2c0.5,0,1-0.5,1.5-0.6c8-2.6,11.8,0,12.2,8.2c0.1,2.6,0,5.2,0,7.9
	c0,1.4-0.2,2.8-2.1,2.6c-1.5-0.1-1.6-1.3-1.6-2.5c0-3.2,0.1-6.4-0.1-9.6c-0.1-2.4-1-4.4-3.9-4.6c-2.8-0.2-4.7,0.8-5.7,3.5
	c-1.3,3.5-0.5,7.1-0.7,10.6c-0.1,1.3,0.1,2.8-2,2.6c-1.5-0.2-1.5-1.4-1.5-2.5C758.4,76.4,758.4,73.7,758.4,71.1z"/>
<path class="st5" d="M796.6,81.1C793,81,793,81,785.1,73.8c-0.8,0-0.7,0.6-0.9,1.1c-0.7,2.2,1.7,6.3-2,6.3c-2.9,0-1.4-4-1.5-6.1
	c-0.2-5.8-0.1-11.6,0-17.4c0-1.3-0.7-3.4,1.5-3.5c2.7-0.1,1.9,2.2,2,3.7c0.1,3.7,0,7.4,0,11c0.5,0.3,1,0.7,1.4,1
	c1.5-1.8,2.8-3.7,4.4-5.4c1.5-1.7,2.9-3.6,5.7-2.4c0,0.3,0.1,0.7-0.1,1c-1.9,3.4-7.7,5-6.8,9.1C789.6,75.4,793.7,77.9,796.6,81.1z"
	/>
<path class="st6" d="M687.3,71.6c0-1.7-0.2-3.4,0.1-5.1c0.4-2-1.8-7.8,4-3.1c0.2,0.1,0.9-0.5,1.4-0.7c7.9-2.8,11.7-0.1,11.9,8.3
	c0.1,2.6,0,5.3,0,7.9c0,1.1,0.1,2.4-1.5,2.5c-1.9,0.1-2-1.3-2-2.6c0-3,0-6,0-9c0-2.7-0.8-4.8-4-5.1c-3.4-0.3-5.5,1.4-6,4.6
	c-0.4,3.1-0.2,6.4-0.2,9.5c0,1.1,0.2,2.4-1.4,2.5c-2,0.2-2-1.2-2-2.5C687.2,76.5,687.3,74.1,687.3,71.6z"/>
<path class="st7" d="M726.9,64.6c-4.2-4.3-8.9-3.8-14.3-0.1c0-3.4,0-5.6,0-7.8c0-1.1,0-2.4-1.5-2.5c-1.8-0.1-2,1.3-2,2.7
	c0,7.3,0,14.6,0,21.9c0,1.4,0.9,3.5,1.8,2.7c3-2.9,5.2,0.2,7.7,0.4c4.6,0.4,8.1-1.3,10.3-5.4C731.2,72.1,730.2,67.9,726.9,64.6z
	 M718.5,78.5c-3.6-0.2-5.7-2.8-5.6-6.9c0.1-4.1,2.5-6.6,6.7-6.7c3.8-0.1,7.2,3.4,6.9,7.3C726.3,75.9,723.3,78.6,718.5,78.5z"/>
<path class="st5" d="M659.3,67c-1.9-3.9-5.2-5.6-9.6-5.4c-2.7,0.1-5.1,3.9-8.3,0.4c-0.7-0.8-1.5,1.1-1.5,2.2c0,7.7,0,15.3,0,23
	c0,0.9,0.1,2,1.3,2c1.4,0.1,2-0.7,2-2c0-2.4,0-4.8,0-8.1c1.6,0.9,2.6,1.5,3.6,1.9c4.1,1.8,7.7,1,10.7-2.1
	C661,75.4,661.4,71.3,659.3,67z M650.6,78.5c-4.2,0.2-6.8-1.9-7.2-6.2c-0.4-4,2.7-7.3,7.4-7.5c3.5,0.2,5.9,2.4,6.1,6.6
	C657.1,75.7,654.9,78.2,650.6,78.5z"/>
<path class="st8" d="M753.6,76.6c0.2-1.5,0-3,0-4.5c0-2.6,0-5.2,0-7.8c0-2.2-1.6-3.5-3-1.8c-1.9,2.3-2.8,0.3-4.1-0.2
	c-4.6-1.8-8.5-0.6-11.5,3.2c-2.9,3.8-2.9,8-0.3,12c2.7,4.1,6.6,5.2,11.2,3.9c1.2-0.4,2.9-1.7,3.4-1.3
	C755.1,84,753.2,78.9,753.6,76.6z M742.8,78.5c-4.3-0.1-6.5-2.8-6.5-6.8c0.1-4.4,2.8-6.8,7.2-6.7c4.3,0.1,6.1,2.8,6.5,6.7
	C749.7,76.3,747.3,78.6,742.8,78.5z"/>
<path class="st9" d="M670.1,73.2c3.2-0.1,6.4-0.2,9.6,0c3.7,0.3,4.1-1.6,3.3-4.5c-1.3-4.8-6.2-7.9-11.3-7.2c-4.7,0.7-8,4.7-8,10.3
	c-0.2,3.3,1,6.4,4.2,8.3c3.6,2.1,7.5,2.5,11.3,0.5c1.2-0.6,3.1-1.4,2.3-3.2c-1-2.1-2.3-0.6-3.6,0.1c-3.1,1.6-6.1,1.6-8.9-0.7
	c-0.8-0.7-1.7-1.6-1.2-2.9C668.1,72.9,669.3,73.3,670.1,73.2z M673.4,64.7c2.9-0.1,6,1.3,5.8,3.9c-0.3,4.3-4.4,0-5.8,2.3
	c-2.1-1.4-5.6,1.2-5.7-2.1C667.6,66.1,670.6,64.8,673.4,64.7z"/>
<path class="st10" d="M625.8,61.6c-5.7-0.1-10.4,4.4-10.5,10.1c-0.1,5.8,4.2,10.1,10.3,10.2c5.6,0.1,9.9-4,10.1-9.7
	C635.9,66.3,631.6,61.7,625.8,61.6z M625.4,78.6c-4.1-0.4-6.5-2.6-6.7-6.8c-0.2-3.9,3.3-7.3,7.2-6.9c4.2,0.4,6.4,2.8,6.3,7.1
	C632.1,76.3,629.7,78.4,625.4,78.6z"/>
</svg>
