<?xml version="1.0" encoding="utf-8"?>
<svg version="1.1" id="Layer_1" xmlns="http://www.w3.org/2000/svg" xmlns:xlink="http://www.w3.org/1999/xlink" x="0px" y="0px"
	 viewBox="0 0 800 124.3" style="enable-background:new 0 0 800 124.3;" xml:space="preserve">
<style type="text/css">
	.st0{fill:#FFFFFF;}
</style>
<g transform="translate(382.796 33.301)">
	<path class="st0" d="M198.8,41.5c-5.4,5.3-14,5.3-19.4,0c-5.4-5.3-5.4-13.9-0.1-19.3c2.6-2.6,6.1-4.1,9.8-4
		c3.6-0.1,7.1,1.4,9.7,3.9C204.1,27.5,204.1,36.1,198.8,41.5L198.8,41.5z M189.1,41c5-0.1,9-4.1,8.9-9.1c-0.1-5-4.1-9-9.1-8.9
		c-5,0.1-9,4.1-8.9,9.1c0,2.4,1,4.6,2.6,6.3C184.3,40.1,186.6,41.1,189.1,41z"/>
	<path class="st0" d="M222.4,18.2c3.5,0,6.9,1.4,9.3,4c5.1,5.4,5.1,13.9,0,19.3c-2.4,2.6-5.8,4-9.3,4c-4,0.2-7.7-1.8-9.8-5.1v14.8
		h-4.5V18.8h4.5v4.5C214.7,20,218.5,18,222.4,18.2z M221.8,41.1c2.5,0.1,4.8-0.9,6.5-2.7c3.5-3.7,3.5-9.5,0-13.2
		c-3.6-3.6-9.5-3.6-13.1,0c-3.5,3.7-3.5,9.5,0,13.2C217,40.2,219.4,41.1,221.8,41.1L221.8,41.1z"/>
	<path class="st0" d="M244.1,33.9c0.3,2.1,1.5,4.1,3.2,5.4c1.8,1.3,4,2,6.2,1.9c3,0.2,5.9-1.2,7.5-3.8l3.8,2.2
		c-2.5,3.9-6.8,6.1-11.4,5.9c-3.7,0.1-7.4-1.2-10-3.9c-2.6-2.6-4-6.1-3.9-9.8c-0.1-3.6,1.3-7.1,3.8-9.7c2.6-2.6,6.1-4,9.8-3.9
		c3.5-0.1,7,1.4,9.3,4c2.4,2.6,3.7,6.1,3.6,9.7c0,0.7-0.1,1.4-0.2,2L244.1,33.9z M253.1,22.4c-4.5-0.2-8.4,3.1-9,7.5h17.3
		c-0.2-2.2-1.3-4.2-2.9-5.6C257,23.1,255,22.4,253.1,22.4L253.1,22.4z"/>
	<path class="st0" d="M284.1,18.2c2.7-0.1,5.4,0.9,7.3,2.9c1.9,2.1,2.9,4.9,2.7,7.8v15.9h-4.5V29.1c0.1-1.8-0.5-3.6-1.7-4.9
		c-1.3-1.2-3-1.8-4.7-1.7c-2-0.1-4,0.7-5.4,2.1c-1.5,1.8-2.3,4.1-2.1,6.5v13.7h-4.5V18.8h4.5v3.7C277.4,19.7,280.7,18,284.1,18.2z"
		/>
	<path class="st0" d="M314.7,18.2c3.5,0,6.9,1.4,9.3,4c5.1,5.4,5.1,13.9,0,19.3c-2.4,2.6-5.8,4-9.3,4c-4,0.2-7.7-1.8-9.8-5.1v4.5
		h-4.5V8.5h4.5v14.8C307,20,310.8,18,314.7,18.2z M314.1,41.1c2.5,0.1,4.8-0.9,6.5-2.7c3.5-3.7,3.5-9.5,0-13.2
		c-3.6-3.6-9.5-3.6-13.1,0c-3.5,3.7-3.5,9.5,0,13.2C309.3,40.2,311.7,41.1,314.1,41.1z"/>
	<path class="st0" d="M354.7,18.8h4.5v25.9h-4.5v-4.5c-2.1,3.3-5.8,5.3-9.8,5.1c-3.5,0-6.9-1.4-9.3-4c-5.1-5.4-5.1-13.9,0-19.3
		c2.4-2.6,5.8-4,9.3-4c4-0.2,7.7,1.8,9.8,5.1V18.8z M345.4,41.1c2.5,0.1,4.9-0.9,6.6-2.7c3.5-3.7,3.5-9.5,0-13.2
		c-3.6-3.6-9.5-3.6-13.1,0c-3.5,3.7-3.5,9.5,0,13.2C340.6,40.2,343,41.1,345.4,41.1L345.4,41.1z"/>
	<path class="st0" d="M378.9,18.2c2.7-0.1,5.4,0.9,7.3,2.9c1.9,2.1,2.9,4.9,2.7,7.8v15.9h-4.5V29.1c0.1-1.8-0.5-3.6-1.7-4.9
		c-1.3-1.2-3-1.8-4.7-1.7c-2-0.1-4,0.7-5.4,2.1c-1.5,1.8-2.3,4.1-2.1,6.5v13.7H366V18.8h4.5v3.7C372.3,19.7,375.5,18,378.9,18.2z"/>
	<path class="st0" d="M417.2,44.8h-5.6l-11.8-12.3v12.3h-4.5V8.5h4.5v21.8L411,18.8h5.8l-12.4,12.5L417.2,44.8z"/>
</g>
<path class="st0" d="M0,109.3h13.6V69.6h44.9v-13H13.6V27.6H71v-13H0V109.3z"/>
<path class="st0" d="M381.5,83.5l-52.6-68.8h-10.5v94.6H332V40.8l52.2,68.4h10.9V14.7h-13.6L381.5,83.5z"/>
<path class="st0" d="M238.7,14.7l-37.8,94.6h14.5l30.7-77l30.7,77h14.5l-37.8-94.6L238.7,14.7z"/>
<path class="st0" d="M169.3,61.1c8.4-11.7,7.1-27.7-3.2-37.8c-5.5-5.6-13.1-8.8-21-8.6h-43v94.6h13.6V27.5h29.4
	c4.3-0.1,8.4,1.7,11.4,4.9c3.1,3.2,4.8,7.4,4.7,11.9c0.1,4.4-1.6,8.7-4.7,11.9c-2.9,3.2-7,5-11.4,5h-10.5l28.2,48.2H178l-22.2-37.7
	C161.2,69.5,165.9,65.9,169.3,61.1z"/>
<path class="st0" d="M504.3,99c1.5-1.3,3.1-2.6,4.5-4c18.5-19.8,17.4-50.8-2.4-69.3s-50.8-17.4-69.3,2.4
	c-18.5,19.8-17.4,50.8,2.4,69.3c7.6,7.1,17.2,11.6,27.5,12.8c4.3,0.7,8.7,0.5,12.8-0.7c-1.7-4.1-2.7-8.4-3.1-12.9
	c-2.7,0.1-5.4,0.1-8-0.2c-19.3-2.3-33.1-19.9-30.8-39.2c2.3-19.3,19.9-33.1,39.2-30.8c19.3,2.3,33.1,19.9,30.8,39.2
	c-1.4,11.4-8.2,21.4-18.3,26.8h-0.1v0.1l0,0l0,0c0.1,17.7,14.5,32.1,32.2,32.1v-13.6C513.9,111.1,507,106.3,504.3,99z"/>
</svg>
