<?xml version="1.0" encoding="utf-8"?>
<!-- Generator: Adobe Illustrator 23.0.1, SVG Export Plug-In . SVG Version: 6.00 Build 0)  -->
<svg version="1.1" id="Layer_1" xmlns="http://www.w3.org/2000/svg" xmlns:xlink="http://www.w3.org/1999/xlink" x="0px" y="0px"
	 viewBox="0 0 800 800" style="enable-background:new 0 0 800 800;" xml:space="preserve">
<style type="text/css">
	.st0{fill:#657BE6;}
	.st1{fill:#5472ED;}
</style>
<path class="st0" d="M400,630.8c-127.8,0-231.4-103.6-231.4-231.4S272.2,168.1,400,168.1s231.3,103.6,231.3,231.4c0,0.4,0,0.7,0,1.1
	H800c0-0.4,0-0.7,0-1.1c0-220.9-179.1-400-400-400S0,178.6,0,399.5s179.1,400,400,400V630.8z"/>
<path class="st1" d="M799.5,631.4C672.2,630.8,569.2,527.5,569.2,400H400.5c0,220.5,178.5,399.4,398.9,400V631.4z"/>
</svg>
