<?xml version="1.0" encoding="utf-8"?>
<svg version="1.1" id="Layer_1" xmlns="http://www.w3.org/2000/svg" xmlns:xlink="http://www.w3.org/1999/xlink" x="0px" y="0px"
	 viewBox="0 0 800 800" style="enable-background:new 0 0 800 800;" xml:space="preserve">
<style type="text/css">
	.st0{fill:#FFFFFF;}
</style>
<path class="st0" d="M400,630.85c-127.77,0-231.35-103.58-231.35-231.35S272.23,168.15,400,168.15S631.35,271.73,631.35,399.5
	c0,0.36-0.01,0.72-0.01,1.08h168.65c0-0.36,0.01-0.72,0.01-1.08c0-220.91-179.09-400-400-400S0,178.59,0,399.5s179.09,400,400,400
	V630.85z"/>
<path class="st0" d="M799.47,631.39C672.19,630.8,569.2,527.46,569.2,400.05H400.55c0,220.55,178.5,399.4,398.92,399.99V631.39z"/>
</svg>
