<svg xmlns="http://www.w3.org/2000/svg" width="496.582" height="80.165" viewBox="0 0 496.582 80.165"><defs><style>.a{fill:#fff;}.b{fill:#5f7def;}</style></defs><g transform="translate(382.796 33.301)"><path class="a" d="M434.042,143.064a6.528,6.528,0,0,1-9.114,0,6.418,6.418,0,0,1,4.551-10.981,6.254,6.254,0,0,1,4.563,1.854,6.482,6.482,0,0,1,0,9.127Zm-4.563-.221a4.252,4.252,0,1,0-3.05-1.244A4.177,4.177,0,0,0,429.479,142.843Z" transform="translate(-423.061 -127.52)"/><path class="a" d="M441.646,132.083a5.85,5.85,0,0,1,4.367,1.867,6.636,6.636,0,0,1,0,9.1,5.854,5.854,0,0,1-4.367,1.867,5.173,5.173,0,0,1-4.612-2.416v6.979H434.91V132.4h2.124v2.1A5.176,5.176,0,0,1,441.646,132.083Zm-.269,10.786a4.152,4.152,0,0,0,3.073-1.257,4.51,4.51,0,0,0,0-6.223,4.42,4.42,0,0,0-6.173,0,4.513,4.513,0,0,0,0,6.223A4.184,4.184,0,0,0,441.377,142.869Z" transform="translate(-419.537 -127.52)"/><path class="a" d="M448.462,139.477a4.019,4.019,0,0,0,1.5,2.538,4.668,4.668,0,0,0,2.916.9,3.822,3.822,0,0,0,3.515-1.781l1.8,1.025a5.96,5.96,0,0,1-5.368,2.757,6.382,6.382,0,0,1-4.721-1.818,6.235,6.235,0,0,1-1.818-4.6,6.308,6.308,0,0,1,1.781-4.586,6.148,6.148,0,0,1,4.612-1.831,5.614,5.614,0,0,1,4.38,1.892,6.583,6.583,0,0,1,1.7,4.551,6.344,6.344,0,0,1-.074.951Zm4.222-5.393a4.052,4.052,0,0,0-4.222,3.539h8.15a4.064,4.064,0,0,0-1.367-2.636A3.909,3.909,0,0,0,452.683,134.084Z" transform="translate(-416.153 -127.52)"/><path class="a" d="M463.858,132.083a4.538,4.538,0,0,1,3.441,1.354,5.094,5.094,0,0,1,1.293,3.673V144.6h-2.123v-7.369a3.152,3.152,0,0,0-.806-2.307,2.978,2.978,0,0,0-2.221-.817,3.442,3.442,0,0,0-2.562.989,4.173,4.173,0,0,0-.976,3.038V144.6h-2.122V132.4H459.9v1.757A4.338,4.338,0,0,1,463.858,132.083Z" transform="translate(-412.736 -127.52)"/><path class="a" d="M475.125,133.129A5.85,5.85,0,0,1,479.492,135a6.636,6.636,0,0,1,0,9.1,5.854,5.854,0,0,1-4.367,1.867,5.175,5.175,0,0,1-4.612-2.416v2.1h-2.124V128.566h2.124v6.979A5.178,5.178,0,0,1,475.125,133.129Zm-.269,10.786a4.157,4.157,0,0,0,3.075-1.257,4.513,4.513,0,0,0,0-6.223,4.422,4.422,0,0,0-6.174,0,4.513,4.513,0,0,0,0,6.223A4.186,4.186,0,0,0,474.856,143.915Z" transform="translate(-409.582 -128.566)"/><path class="a" d="M490.554,132.4h2.124v12.2h-2.124v-2.1a5.175,5.175,0,0,1-4.612,2.416,5.852,5.852,0,0,1-4.367-1.867,6.636,6.636,0,0,1,0-9.1,5.848,5.848,0,0,1,4.367-1.867,5.178,5.178,0,0,1,4.612,2.416Zm-4.344,10.47a4.184,4.184,0,0,0,3.1-1.257,4.513,4.513,0,0,0,0-6.223,4.421,4.421,0,0,0-6.173,0,4.51,4.51,0,0,0,0,6.223A4.153,4.153,0,0,0,486.21,142.869Z" transform="translate(-406.198 -127.52)"/><path class="a" d="M498.277,132.083a4.538,4.538,0,0,1,3.442,1.354,5.1,5.1,0,0,1,1.292,3.673V144.6h-2.122v-7.369a3.146,3.146,0,0,0-.806-2.307,2.973,2.973,0,0,0-2.22-.817,3.438,3.438,0,0,0-2.562.989,4.168,4.168,0,0,0-.976,3.038V144.6H492.2V132.4h2.124v1.757A4.337,4.337,0,0,1,498.277,132.083Z" transform="translate(-402.501 -127.52)"/><path class="a" d="M513.132,145.647H510.5l-5.563-5.777v5.777h-2.124V128.566h2.124v10.252l5.27-5.372h2.734l-5.832,5.906Z" transform="translate(-399.346 -128.566)"/></g><path class="b" d="M168.089,119.788a23.219,23.219,0,0,1,23.193,23.193h16.889a40.083,40.083,0,1,0-40.082,40.082V166.175a23.193,23.193,0,1,1,0-46.386Z" transform="translate(-128.005 -102.898)"/><path class="b" d="M175.794,133.794H158.905a40.127,40.127,0,0,0,40.082,40.082V156.987A23.22,23.22,0,0,1,175.794,133.794Z" transform="translate(-118.816 -93.71)"/><path class="a" d="M220.544,163.257h6.409V144.606H248.1v-6.1H226.953V124.824h27.025v-6.1H220.544Z" transform="translate(-100.487 -98.191)"/><path class="a" d="M365.762,151.115,341.01,118.728H336.06v44.529h6.409V131.043l24.559,32.214h5.144V118.728h-6.409Z" transform="translate(-66.136 -98.191)"/><path class="a" d="M311.208,118.728l-17.8,44.529h6.826L314.7,127l14.464,36.253h6.825l-17.8-44.529Z" transform="translate(-78.818 -98.191)"/><path class="a" d="M289.221,140.6a13.689,13.689,0,0,0-1.506-17.8,13.567,13.567,0,0,0-9.87-4.071H257.591v44.53H264v-38.5h13.844a7.175,7.175,0,0,1,5.352,2.3,7.794,7.794,0,0,1,2.213,5.58,7.906,7.906,0,0,1-2.213,5.614,7.138,7.138,0,0,1-5.352,2.33h-4.951l13.266,22.673h7.129l-10.443-17.721A13.948,13.948,0,0,0,289.221,140.6Z" transform="translate(-89.47 -98.191)"/><path class="a" d="M412.155,158.645c.729-.6,1.444-1.214,2.122-1.871a23.075,23.075,0,1,0-19.668,7.172,13.52,13.52,0,0,0,6.038-.319,21.031,21.031,0,0,1-1.476-6.051,28.9,28.9,0,0,1-3.774-.087,16.6,16.6,0,1,1,9.869-1.873H405.2l0,.04,0,0h0a15.164,15.164,0,0,0,15.148,15.105v-6.382A8.759,8.759,0,0,1,412.155,158.645Z" transform="translate(-54.758 -98.421)"/></svg>