<?xml version="1.0" encoding="utf-8"?>
<!-- Generator: Adobe Illustrator 23.0.1, SVG Export Plug-In . SVG Version: 6.00 Build 0)  -->
<svg version="1.1" id="Layer_1" xmlns="http://www.w3.org/2000/svg" xmlns:xlink="http://www.w3.org/1999/xlink" x="0px" y="0px"
	 viewBox="0 0 786.8 430.5" style="enable-background:new 0 0 786.8 430.5;" xml:space="preserve">
<style type="text/css">
	.st0{fill:none;stroke:#BABED4;stroke-width:2;}
	.st1{fill:none;stroke:#32323C;stroke-width:2;}
	.st2{fill:#BABED4;}
	.st3{font-family:'Arial-BoldMT';}
	.st4{font-size:20px;}
	.st5{fill:#32323C;}
	.st6{fill:#5F7DEF;}
	.st7{fill:#F8F9FD;}
	.st8{fill:#FFFFFF;}
</style>
<line class="st0" x1="60" y1="214.7" x2="188.4" y2="214.7"/>
<line class="st1" x1="238.4" y1="214.7" x2="356.4" y2="214.7"/>
<g transform="translate(4735.686 1842.787)">
	<text transform="matrix(1 0 0 1 -4715.062 -1543.7999)" class="st2 st3 st4">Cliente</text>
	<text transform="matrix(1 0 0 1 -4708.8423 -1519.7999)" class="st2 st3 st4">Franq</text>
</g>
<g transform="translate(4906.356 1842.787)">
	<text transform="matrix(1 0 0 1 -4715.5723 -1543.7999)" class="st5 st3 st4">Personal</text>
	<text transform="matrix(1 0 0 1 -4708.312 -1519.7999)" class="st5 st3 st4">Banker</text>
</g>
<path class="st6" d="M571.6,0L571.6,0C452.9,0,356.4,96.6,356.4,215.2s96.5,215.2,215.2,215.2v-90.7C502.8,339.8,447,284,447,215.2
	S502.8,90.7,571.6,90.7c68.8,0,124.5,55.8,124.5,124.5c0,0,0,0,0,0h90.7C786.8,96.6,690.3,0,571.6,0z"/>
<g transform="translate(5136.699 1649.843)">
	<path class="st7" d="M-4679.9-1525.7h-6.9c-0.4,0-0.7-0.3-0.7-0.7c0-0.4,0.3-0.7,0.7-0.7h6.9c0.4,0,0.7,0.3,0.7,0.7
		C-4679.3-1526-4679.6-1525.7-4679.9-1525.7L-4679.9-1525.7z M-4691-1525.7h-23.5c-0.4,0-0.7-0.3-0.7-0.7c0-0.4,0.3-0.7,0.7-0.7
		c0,0,0,0,0,0h23.5c0.4,0,0.7,0.3,0.7,0.7C-4690.3-1526-4690.6-1525.7-4691-1525.7L-4691-1525.7z M-4684.8-1528.4L-4684.8-1528.4
		c-1.5,0-2.8-1.2-2.8-2.8v-24.9c0-1.5,1.2-2.7,2.8-2.8h0c1.5,0,2.8,1.2,2.8,2.8v24.9C-4682-1529.7-4683.3-1528.4-4684.8-1528.4
		C-4684.8-1528.4-4684.8-1528.4-4684.8-1528.4z M-4684.8-1557.4c-0.8,0-1.4,0.6-1.4,1.4v24.9c0,0.8,0.6,1.4,1.4,1.4
		c0.8,0,1.4-0.6,1.4-1.4l0,0v-24.9C-4683.4-1556.8-4684-1557.4-4684.8-1557.4C-4684.8-1557.4-4684.8-1557.4-4684.8-1557.4
		L-4684.8-1557.4z M-4693.1-1528.4L-4693.1-1528.4c-1.5,0-2.8-1.2-2.8-2.8v-13.8c0-1.5,1.2-2.8,2.8-2.8s2.8,1.2,2.8,2.8c0,0,0,0,0,0
		v13.8c0,0.7-0.3,1.4-0.8,2C-4691.6-1528.7-4692.3-1528.4-4693.1-1528.4L-4693.1-1528.4z M-4693.1-1546.4c-0.8,0-1.4,0.6-1.4,1.4
		v13.8c0,0.8,0.6,1.4,1.4,1.4c0.8,0,1.4-0.6,1.4-1.4v-13.8C-4691.7-1545.8-4692.3-1546.4-4693.1-1546.4
		C-4693.1-1546.4-4693.1-1546.4-4693.1-1546.4L-4693.1-1546.4z M-4701.4-1528.4L-4701.4-1528.4c-1.5,0-2.8-1.2-2.8-2.8v-19.3
		c0-1.5,1.3-2.7,2.8-2.7c1.5,0,2.7,1.2,2.7,2.7v19.3C-4698.6-1529.7-4699.8-1528.4-4701.4-1528.4L-4701.4-1528.4z M-4701.4-1551.9
		c-0.8,0-1.4,0.6-1.4,1.4v19.3c0,0.8,0.6,1.4,1.4,1.4c0.8,0,1.4-0.6,1.4-1.4v-19.3C-4700-1551.3-4700.6-1551.9-4701.4-1551.9
		L-4701.4-1551.9z M-4709.6-1528.4L-4709.6-1528.4c-1.5,0-2.8-1.2-2.8-2.8v-8.3c0-1.5,1.2-2.8,2.8-2.8h0c1.5,0,2.8,1.2,2.8,2.8v8.3
		c0,0.7-0.3,1.4-0.8,2C-4708.2-1528.7-4708.9-1528.4-4709.6-1528.4L-4709.6-1528.4z M-4709.6-1540.8c-0.8,0-1.4,0.6-1.4,1.4v8.3
		c0,0.8,0.6,1.4,1.4,1.4c0.8,0,1.4-0.6,1.4-1.4v-8.3C-4708.3-1540.2-4708.9-1540.8-4709.6-1540.8L-4709.6-1540.8z"/>
</g>
<g transform="translate(5412.404 1656.575)">
	<path class="st7" d="M-4687.1-1520.4h-25.1c-1.6,0-2.9-1.3-2.9-3c0,0,0,0,0,0v-3.7c0-0.4,0.3-0.7,0.7-0.7h0c0.4,0,0.7,0.3,0.7,0.7
		c0,0,0,0,0,0v3.7c0,0.8,0.7,1.5,1.5,1.5h25.1c0.8,0,1.5-0.7,1.5-1.5v-5.9h-8.9c-0.8,0-1.5-0.3-2.1-0.9c-0.6-0.6-0.9-1.3-0.9-2.1
		v-2.9c0-1.6,1.3-3,2.9-3h8.9v-5.9c0-0.8-0.7-1.5-1.5-1.5h-25.1c-0.8,0-1.5,0.7-1.5,1.5v11.1c0,0.4-0.3,0.7-0.7,0.7
		c-0.4,0-0.7-0.3-0.7-0.7v-11.1c0-1.6,1.3-3,2.9-3h7.4c0-1.4,0.5-2.8,1.5-3.9v-4.2c0-0.4,0.3-0.7,0.7-0.7c0.4,0,0.7,0.3,0.7,0.7v3
		c2.8-1.6,6.4-0.7,8.1,2.2c0.5,0.9,0.8,1.9,0.8,3h5.9c1.6,0,3,1.3,3,3c0,0,0,0,0,0v5.9h1.5c0.8,0,1.5,0.3,2.1,0.9
		c0.6,0.6,0.9,1.3,0.9,2.1v2.9c0,1.6-1.3,3-2.9,3h-1.5v5.9C-4684.1-1521.7-4685.4-1520.4-4687.1-1520.4z M-4694.5-1536.6
		c-0.8,0-1.5,0.7-1.5,1.5v2.9c0,0.8,0.6,1.5,1.4,1.5c0,0,0,0,0,0h11.9c0.8,0,1.5-0.7,1.5-1.5v-2.9c0-0.8-0.6-1.5-1.5-1.5
		L-4694.5-1536.6L-4694.5-1536.6z M-4698.9-1549.9c1.6,0,3,1.3,3,3h1.5c0-2.4-2-4.4-4.5-4.4c-2.4,0-4.3,2-4.4,4.4h1.5
		C-4701.9-1548.6-4700.5-1549.9-4698.9-1549.9L-4698.9-1549.9z M-4698.9-1548.4c-0.8,0-1.5,0.7-1.5,1.5l0,0h3
		C-4697.4-1547.8-4698.1-1548.5-4698.9-1548.4C-4698.9-1548.5-4698.9-1548.5-4698.9-1548.4L-4698.9-1548.4z M-4689.3-1524.8h-4.5
		c-0.4,0-0.7-0.3-0.7-0.7c0-0.4,0.3-0.7,0.7-0.7h4.5c0.4,0,0.7,0.3,0.7,0.7C-4688.5-1525.1-4688.9-1524.8-4689.3-1524.8
		L-4689.3-1524.8z M-4693-1532.2c-0.8,0-1.5-0.7-1.5-1.5s0.7-1.5,1.5-1.5c0.8,0,1.5,0.7,1.5,1.5
		C-4691.5-1532.9-4692.2-1532.2-4693-1532.2L-4693-1532.2z M-4695.2-1554.4c-0.4,0-0.7-0.3-0.7-0.7c0,0,0,0,0,0v-3
		c0-0.4,0.3-0.7,0.7-0.7c0.4,0,0.7,0.3,0.7,0.7v3C-4694.5-1554.7-4694.8-1554.4-4695.2-1554.4L-4695.2-1554.4z"/>
</g>
<g transform="translate(5105.718 1790.025)">
	<path class="st7" d="M-4715.2-1531.2v-13.8c0-1.5,1.2-2.8,2.8-2.8h2.1c0.4,0,0.7,0.3,0.7,0.7c0,0.4-0.3,0.7-0.7,0.7h-2.1
		c-0.8,0-1.4,0.6-1.4,1.4v13.8c0,0.8,0.6,1.4,1.4,1.4h22.1c0.8,0,1.4-0.6,1.4-1.4v-4.8c0,0,0,0,0,0c0-0.4,0.3-0.7,0.7-0.7
		c0,0,0,0,0,0c0.4,0,0.7,0.3,0.7,0.7v4.8c0,1.5-1.2,2.8-2.8,2.8h-22.1C-4713.9-1528.4-4715.2-1529.7-4715.2-1531.2z M-4711-1533.3
		c0-0.4,0.3-0.7,0.7-0.7h17.9c0.4,0,0.7,0.3,0.7,0.7c0,0,0,0,0,0c0,0.4-0.3,0.7-0.7,0.7h-17.9
		C-4710.7-1532.6-4711-1532.9-4711-1533.3L-4711-1533.3z M-4704.1-1539.5c-1.5,0-2.8-1.2-2.8-2.8v-13.8c0-1.5,1.2-2.8,2.8-2.8h22.1
		c1.5,0,2.8,1.2,2.8,2.8v13.8c0,1.5-1.2,2.8-2.8,2.8L-4704.1-1539.5L-4704.1-1539.5z M-4704.1-1557.4c-0.8,0-1.4,0.6-1.4,1.4v13.8
		c0,0.8,0.6,1.4,1.4,1.4h22.1c0.8,0,1.4-0.6,1.4-1.4c0,0,0,0,0,0v-13.8c0-0.8-0.6-1.4-1.4-1.4L-4704.1-1557.4z M-4693.1-1549.1
		c0-2.3,1.9-4.1,4.1-4.1c2.3,0,4.1,1.9,4.1,4.1c0,2.3-1.9,4.1-4.1,4.1C-4691.2-1545-4693.1-1546.8-4693.1-1549.1
		C-4693.1-1549.1-4693.1-1549.1-4693.1-1549.1L-4693.1-1549.1z M-4691.7-1549.1c0,1.5,1.2,2.8,2.8,2.8c1.5,0,2.8-1.2,2.8-2.8
		c0-1.5-1.2-2.8-2.8-2.8C-4690.4-1551.9-4691.7-1550.7-4691.7-1549.1C-4691.7-1549.1-4691.7-1549.1-4691.7-1549.1L-4691.7-1549.1z"
		/>
</g>
<g transform="translate(5269.084 1585.69)">
	<path class="st7" d="M-4712.8-1538.6c-1-3.5-1.6-7-2-10.6c-0.1-1.2-0.2-2.3-0.3-3.5c0-0.4,0-0.9-0.1-1.3c0-0.5,0.1-1,0.5-1.3
		c0.3-0.4,0.8-0.6,1.3-0.6c0.1,0,0.2,0,0.2,0c0.2,0,0.4,0.1,0.7,0.1c0.6,0.1,1.3,0.1,2,0.1c1.4,0,2.7-0.1,4.1-0.3l0.1,0
		c1.5-0.3,3-0.7,4.5-1.2c0.8-0.3,1.7-0.6,2.5-1c0.5-0.2,0.8-0.4,1-0.4c0.1,0,0.2-0.1,0.3-0.1h0h0c0.1,0,0.2,0,0.3,0.1
		c0.3,0.1,0.6,0.3,1,0.4c0.8,0.4,1.7,0.7,2.5,1c1.5,0.5,3,0.9,4.5,1.2l0.1,0c1.3,0.2,2.7,0.3,4.1,0.3c0.7,0,1.4,0,2-0.1
		c0.5,0,0.6-0.1,0.7-0.1c0.1,0,0.2,0,0.3,0c0.5,0,1,0.2,1.4,0.6c0.3,0.4,0.5,0.8,0.5,1.3c0,0.4,0,0.9-0.1,1.3
		c-0.1,1.2-0.2,2.3-0.3,3.5c-0.4,3.6-1,7.1-1.9,10.6c-2.9,10.4-7.9,15.7-14.9,15.7S-4709.9-1528.2-4712.8-1538.6z M-4682.6-1554.6
		c-0.1,0-0.4,0.1-0.8,0.1c-0.7,0.1-1.4,0.1-2.1,0.1c-1.4,0-2.9-0.1-4.3-0.4l-0.1,0c-1.6-0.3-3.2-0.7-4.7-1.3
		c-1.1-0.4-2.3-0.9-3.4-1.4c-1.1,0.5-2.2,1-3.4,1.4c-1.5,0.6-3.1,1-4.7,1.3l-0.1,0c-1.4,0.2-2.9,0.4-4.3,0.4c-0.7,0-1.4,0-2.1-0.1
		c-0.4,0-0.7-0.1-0.8-0.1c0,0,0,0-0.1,0c-0.1,0-0.2,0-0.3,0.1c-0.1,0.1-0.1,0.2-0.1,0.4c0,0.2,0,0.6,0.1,1.3
		c0.1,1.1,0.2,2.2,0.3,3.4c0.4,3.5,1,7,1.9,10.4c1.3,4.7,3.1,8.4,5.3,10.8c1,1.2,2.3,2.2,3.8,2.9c2.9,1.3,6.2,1.3,9.1,0
		c1.4-0.7,2.7-1.7,3.8-2.9c2.2-2.5,4-6.1,5.3-10.8c0.9-3.4,1.6-6.9,1.9-10.4c0.1-1.2,0.2-2.3,0.3-3.4c0-0.5,0-1,0.1-1.3
		c0-0.1,0-0.3-0.1-0.4C-4682.3-1554.5-4682.4-1554.6-4682.6-1554.6C-4682.5-1554.6-4682.6-1554.6-4682.6-1554.6L-4682.6-1554.6z
		 M-4703.8-1530.5c-1.8-2.3-3.2-5-3.9-7.9c-0.7-2.4-1.2-4.8-1.5-7.2c-0.1-0.8-0.2-1.6-0.3-2.4c0-0.5-0.1-0.8-0.1-0.9
		c0-0.4,0.1-0.9,0.4-1.2c0.3-0.3,0.7-0.5,1.1-0.5h2.6c0.4,0,0.7,0.3,0.7,0.7c0,0,0,0,0,0c0,0.4-0.3,0.7-0.7,0.7h-2.6
		c0,0-0.1,0-0.1,0c0,0.1-0.1,0.1,0,0.2c0,0.1,0,0.4,0.1,0.9c0.1,0.8,0.2,1.5,0.3,2.3c0.3,2.4,0.8,4.7,1.5,7c0.7,2.6,1.9,5.1,3.5,7.3
		c1.2,1.6,3,2.6,5,2.6l0,0c2,0,3.8-1,5-2.6c1.6-2.2,2.8-4.6,3.5-7.3c0.7-2.3,1.2-4.6,1.5-7c0.1-0.8,0.2-1.6,0.3-2.3
		c0-0.5,0.1-0.8,0.1-0.9c0-0.1,0-0.2-0.1-0.2c0,0-0.1,0-0.1,0h-12.3c-0.4,0-0.7-0.3-0.7-0.7c0,0,0,0,0,0c0-0.4,0.3-0.7,0.7-0.7h12.3
		c0.4,0,0.8,0.2,1.1,0.5c0.3,0.3,0.4,0.8,0.4,1.2c0,0.3,0,0.6-0.1,0.9c-0.1,0.8-0.2,1.6-0.3,2.4c-0.3,2.4-0.8,4.8-1.5,7.2
		c-0.7,2.9-2.1,5.6-3.9,7.9c-1.4,1.8-3.6,2.9-5.9,2.9h0C-4700.2-1527.7-4702.4-1528.7-4703.8-1530.5L-4703.8-1530.5z"/>
</g>
<g transform="translate(5172.611 1894.872)">
	<path class="st7" d="M-4715.2-1525c0-0.4,0.3-0.7,0.7-0.7h34.5c0.4,0,0.7,0.3,0.7,0.7c0,0.4-0.3,0.7-0.7,0.7h-34.5
		C-4714.9-1524.3-4715.2-1524.6-4715.2-1525C-4715.2-1525-4715.2-1525-4715.2-1525z M-4715.2-1529.8v-20.7c0-1.5,1.2-2.8,2.8-2.8
		c0,0,0,0,0,0h30.4c1.5,0,2.8,1.2,2.8,2.8v0v20.7c0,1.5-1.2,2.8-2.8,2.8c0,0,0,0,0,0h-30.4
		C-4713.9-1527-4715.2-1528.3-4715.2-1529.8z M-4693.1-1537.7v1.7c0,1.1-0.9,2.1-2.1,2.1h-4.1c-1.1,0-2.1-0.9-2.1-2.1v-1.7
		l-12.4-4.2v12.2c0,0.8,0.6,1.4,1.4,1.4h30.4c0.8,0,1.4-0.6,1.4-1.4v-12.2L-4693.1-1537.7z M-4699.3-1540.8c-0.4,0-0.7,0.3-0.7,0.7
		v4.1c0,0.4,0.3,0.7,0.7,0.7h4.1c0.4,0,0.7-0.3,0.7-0.7c0,0,0,0,0,0v-4.1c0-0.4-0.3-0.7-0.7-0.7c0,0,0,0,0,0H-4699.3z
		 M-4693.1-1540.2v1l12.4-4.2v-7.1c0-0.8-0.6-1.4-1.4-1.4h-30.4c-0.8,0-1.4,0.6-1.4,1.4v7.1l12.4,4.2v-1c0-1.1,0.9-2.1,2.1-2.1h4.1
		C-4694-1542.2-4693.1-1541.3-4693.1-1540.2z M-4697.9-1537.4c-0.4,0-0.7-0.3-0.7-0.7c0,0,0,0,0,0c0-0.4,0.3-0.7,0.7-0.7h1.4
		c0.4,0,0.7,0.3,0.7,0.7c0,0.4-0.3,0.7-0.7,0.7H-4697.9z M-4702.4-1554.7c-0.3-0.2-0.5-0.6-0.3-0.9c0,0,0,0,0,0
		c0.5-1,1.2-1.8,2.2-2.4c2.1-1.1,4.5-1.1,6.6,0c0.9,0.6,1.7,1.4,2.2,2.4c0.2,0.3,0,0.8-0.3,0.9c-0.3,0.2-0.8,0-0.9-0.3
		c-1.4-2.3-4.4-3.1-6.8-1.7c-0.7,0.4-1.3,1-1.7,1.7c-0.1,0.2-0.3,0.4-0.6,0.4h0C-4702.2-1554.7-4702.3-1554.7-4702.4-1554.7z"/>
</g>
<g transform="translate(5286.745 1774.026)">
	<path class="st6" d="M-4499.9-1343.6c-118.7,0-215.2-96.6-215.2-215.2h90.7c0.1,68.7,55.8,124.5,124.5,124.5V-1343.6z"/>
</g>
<path class="st0" d="M138.9,222.7l8-8l-8-8"/>
<path class="st1" d="M318.6,222.7l8-8l-8-8"/>
<circle class="st5" cx="234.4" cy="214.2" r="54.4"/>
<g transform="translate(4925.024 1746.43)">
	<g transform="translate(10.216)">
		<path class="st8" d="M-4700.9-1524.1c-5,0-9.5-4.1-11.4-10.2c-1.7-0.1-2.9-2.3-2.9-5.1c0-0.8,0.1-1.6,0.3-2.3
			c-0.2-0.9-0.3-1.9-0.3-2.8c0-7.9,6.4-14.3,14.3-14.3c7.9,0,14.3,6.4,14.3,14.3c0,0.9-0.1,1.9-0.3,2.8c0.2,0.8,0.3,1.5,0.3,2.3
			c0,2.8-1.3,5-2.9,5.1C-4691.4-1528.1-4695.8-1524.1-4700.9-1524.1z M-4711.5-1536.5c0.1,0,0.2,0,0.4,0.1c0.3,0.1,0.5,0.4,0.6,0.7
			c1.4,5.8,5.3,9.6,9.6,9.6s8.2-3.9,9.6-9.6c0.1-0.5,0.7-0.9,1.2-0.7c0.1,0,0.2,0.1,0.3,0.1c0.3,0.1,1.1-1,1.1-3
			c0-0.7-0.1-1.3-0.3-1.9c-0.1-0.2-0.1-0.4,0-0.5c0.2-0.9,0.3-1.7,0.3-2.6c0.1-6.8-5.3-12.3-12.1-12.4c-6.8-0.1-12.3,5.3-12.4,12.1
			c0,1,0.1,1.9,0.3,2.9c0,0.2,0,0.4,0,0.5c-0.2,0.6-0.3,1.3-0.3,1.9c0,2,0.8,3.1,1,3.1C-4711.9-1536.4-4711.7-1536.5-4711.5-1536.5
			L-4711.5-1536.5z"/>
	</g>
	<g transform="translate(10.559 6.129)">
		<path class="st8" d="M-4691-1546.5c-0.4,0-0.8-0.2-0.9-0.6c-0.5-1.1-0.8-2.3-1-3.5c-4-0.3-7.9-1.9-10.9-4.6
			c-0.2,0.3-0.4,0.6-0.7,0.9c-1.6,1.6-4.2,1.6-5.6,1.7c-0.4,1.7-0.5,3.4-0.3,5c0,0.6-0.4,1.1-0.9,1.1c-0.1,0-0.2,0-0.2,0
			c-0.9-0.1-1.7-0.2-2.6-0.2c-0.6,0-1-0.5-1-1s0.5-1,1-1c0,0,0,0,0,0c0.6,0,1.1,0,1.6,0.1c-0.1-1.8,0-4.5,1-5.5
			c0.4-0.4,0.9-0.6,1.4-0.5c1.2,0,3.1-0.1,4.1-1.1c0.5-0.5,0.8-1.3,0.7-2c0-0.6,0.5-1,1-1s1,0.5,1,1c0,0,0,0,0,0
			c0.1,1,5.2,5.1,11.2,5.1c0.6,0,1,0.5,1,1c0.1,1,0.3,2,0.7,3l2-0.2c0.6,0,1,0.4,1.1,1c0,0.5-0.4,1-0.9,1.1L-4691-1546.5
			C-4690.9-1546.5-4691-1546.5-4691-1546.5z"/>
	</g>
	<g transform="translate(0 32.688)">
		<path class="st8" d="M-4667.1-1542.5h-47c-0.6,0-1-0.5-1-1c0-0.1,0-0.2,0-0.2l1.6-6.3c0.4-1.4,1.3-2.7,2.7-3.3l10.6-5.3
			c0.5-0.3,1.1,0,1.4,0.5c0,0,0,0,0,0.1l5.3,12.3l0.8-1.5c-0.7-0.9-1.9-2.8-1.9-4.2c0-1.9,1.6-3.1,4.1-3.1s4.1,1.2,4.1,3.1
			c0,1.4-1.2,3.3-1.9,4.2l0.8,1.5l5.3-12.3c0.1-0.3,0.3-0.5,0.6-0.6c0.3-0.1,0.6-0.1,0.8,0l10.6,5.3c1.3,0.7,2.3,1.9,2.7,3.3
			l1.6,6.3c0.1,0.6-0.2,1.1-0.8,1.2C-4667-1542.5-4667.1-1542.5-4667.1-1542.5L-4667.1-1542.5z M-4686-1544.5h17.6l-1.3-5.1
			c-0.2-0.9-0.8-1.6-1.6-2l-9.6-4.8L-4686-1544.5z M-4692.1-1544.5h2.8l-1.3-2.6c-0.2-0.4-0.1-0.8,0.1-1.1c0.8-0.9,1.8-2.6,1.8-3.4
			c0-0.9-1.4-1-2-1s-2,0.1-2,1c0,0.8,1.1,2.5,1.8,3.4c0.2,0.3,0.3,0.7,0.1,1.1L-4692.1-1544.5z M-4712.8-1544.5h17.6l-5.1-11.9
			l-9.6,4.8c-0.8,0.4-1.4,1.1-1.6,2L-4712.8-1544.5z"/>
	</g>
</g>
<circle class="st2" cx="54.4" cy="214.2" r="54.4"/>
<g transform="translate(4746.266 1746.394)">
	<g transform="translate(10.23)">
		<path class="st8" d="M-4700.8-1524c-5,0-9.5-4.1-11.4-10.2c-1.7-0.1-2.9-2.3-2.9-5.1c0-0.8,0.1-1.6,0.3-2.3
			c-0.2-0.9-0.3-1.9-0.3-2.8c0-7.9,6.4-14.3,14.3-14.3c7.9,0,14.3,6.4,14.3,14.3c0,0.9-0.1,1.9-0.3,2.8c0.2,0.8,0.3,1.5,0.3,2.3
			c0,2.9-1.3,5-2.9,5.1C-4691.3-1528.1-4695.8-1524-4700.8-1524z M-4711.5-1536.5c0.1,0,0.2,0,0.4,0.1c0.3,0.1,0.5,0.4,0.6,0.7
			c1.4,5.8,5.3,9.7,9.7,9.7s8.2-3.9,9.7-9.7c0.1-0.5,0.7-0.9,1.2-0.7c0.1,0,0.2,0.1,0.3,0.1c0.3,0.1,1.1-1,1.1-3
			c0-0.7-0.1-1.3-0.3-1.9c-0.1-0.2-0.1-0.4,0-0.5c0.2-0.9,0.3-1.7,0.3-2.6c0.1-6.8-5.3-12.3-12.1-12.4c-6.8-0.1-12.3,5.3-12.4,12.1
			c0,1,0.1,2,0.3,3c0,0.2,0,0.4,0,0.5c-0.2,0.6-0.3,1.3-0.3,1.9c0,2,0.8,3.1,1,3.1C-4711.9-1536.4-4711.7-1536.5-4711.5-1536.5
			L-4711.5-1536.5z"/>
	</g>
	<g transform="translate(0 32.131)">
		<path class="st8" d="M-4667.1-1541.8h-47.1c-0.6,0-1-0.5-1-1v-1.5c0-5.7,3.6-10.7,8.9-12.6l5.3-1.8c0.4-0.1,0.8,0,1.1,0.3
			c4.2,5.1,11.8,5.8,16.9,1.6c0.6-0.5,1.1-1,1.6-1.6c0.3-0.3,0.7-0.4,1.1-0.3l5.3,1.8c5.3,1.9,8.9,6.9,8.9,12.6v1.5
			C-4666.1-1542.3-4666.5-1541.8-4667.1-1541.8L-4667.1-1541.8z M-4713.1-1543.9h45v-0.5c0-4.8-3-9.1-7.6-10.6l-4.6-1.6
			c-5.2,5.7-14.1,6.1-19.7,0.9c-0.3-0.3-0.6-0.6-0.9-0.9l-4.6,1.6c-4.5,1.6-7.6,5.8-7.6,10.6L-4713.1-1543.9z"/>
	</g>
	<g transform="translate(10.575 6.138)">
		<path class="st8" d="M-4714.1-1546.7c-0.6,0-1-0.5-1-1c0-0.4,0.3-0.8,0.6-0.9c0.1,0,7.2-2.9,7.2-9.1c0-0.6,0.4-1,1-1
			c0.6,0,1,0.4,1,1c0,0,0,0,0,0c0.3,1.3,8.6,9,17,9c0.6,0,1,0.4,1.1,1c0,0.6-0.4,1-1,1.1c0,0,0,0-0.1,0c-6.9,0-14.3-4.7-17.5-8.2
			c-1.7,5.5-7.8,8-8.1,8.1C-4713.9-1546.8-4714-1546.7-4714.1-1546.7z"/>
	</g>
	<g transform="translate(6.138 13.299)">
		<path class="st8" d="M-4703.9-1540.4c0,0-0.1,0-0.1,0c-0.9-0.1-8.6-1.1-10.8-3.4c-0.4-0.4-0.4-1,0-1.4c2-2,3.8-9.3,3.8-12.6
			c0-0.6,0.5-1,1.1-1c0.5,0,1,0.5,1,1c0,3-1.5,9.9-3.6,13.1c2,1.1,6.3,1.9,8.9,2.2c0.6,0.1,1,0.6,0.9,1.1
			C-4702.9-1540.8-4703.4-1540.4-4703.9-1540.4L-4703.9-1540.4z"/>
	</g>
	<g transform="translate(30.69 13.299)">
		<path class="st8" d="M-4714.1-1540.4c-0.6,0-1-0.5-1-1c0-0.5,0.4-1,0.9-1c2.6-0.3,6.9-1.2,8.9-2.2c-2.2-3.2-3.6-10.1-3.6-13.1
			c0-0.6,0.5-1,1-1s1,0.5,1,1c0,3.3,1.8,10.6,3.8,12.6c0.4,0.4,0.4,1,0,1.4c-2.3,2.3-10,3.3-10.8,3.4
			C-4714.1-1540.4-4714.1-1540.4-4714.1-1540.4z"/>
	</g>
</g>
<g transform="translate(5204.47 3794.165)">
	<path class="st8" d="M-4693.3-1549.6c7,0,12.6,5.7,12.6,12.6h9.2c0-12.1-9.8-21.8-21.8-21.8c-12.1,0-21.8,9.8-21.8,21.8
		c0,12.1,9.8,21.8,21.8,21.8v-9.2c-7,0-12.6-5.7-12.6-12.7C-4705.9-1543.9-4700.3-1549.6-4693.3-1549.6L-4693.3-1549.6z"/>
	<path class="st8" d="M-4684.1-1537h-9.2c0,12.1,9.8,21.8,21.8,21.8v-9.2C-4678.4-1524.3-4684.1-1530-4684.1-1537z"/>
</g>
</svg>
