<?xml version="1.0" encoding="utf-8"?>
<!-- Generator: Adobe Illustrator 23.0.1, SVG Export Plug-In . SVG Version: 6.00 Build 0)  -->
<svg version="1.1" id="Layer_1" xmlns="http://www.w3.org/2000/svg" xmlns:xlink="http://www.w3.org/1999/xlink" x="0px" y="0px"
	 viewBox="0 0 1280 860" style="enable-background:new 0 0 1280 860;" xml:space="preserve">
<style type="text/css">
	.st0{opacity:0.1;fill:none;stroke:#FFFFFF;stroke-miterlimit:10;enable-background:new    ;}
</style>
<path class="st0" d="M214.3,766.7C146,766.4,90.8,711,90.8,642.6H0.3c0,118.3,95.8,214.2,214,214.6V766.7L214.3,766.7z"/>
<path class="st0" d="M428.5,766.7C360.3,766.4,305,711,305,642.6h-90.5c0,118.3,95.8,214.2,214,214.6V766.7L428.5,766.7z"/>
<path class="st0" d="M0.3,518.5c68.3,0.3,123.5,55.8,123.5,124.1h90.5c0-118.3-95.8-214.2-214-214.6L0.3,518.5L0.3,518.5z"/>
<path class="st0" d="M90.5,216.8c0.3-68.3,55.7-123.5,124.1-123.5V2.8C96.2,2.8,0.3,98.6,0,216.8H90.5L90.5,216.8z"/>
<path class="st0" d="M214.3,340.6C146,340.3,90.8,284.9,90.8,216.5H0.3c0,118.3,95.8,214.3,214,214.6V340.6L214.3,340.6z"/>
<path class="st0" d="M338.4,216.8c-0.3,68.3-55.8,123.5-124.1,123.5v90.5c118.3,0,214.2-95.8,214.6-214H338.4L338.4,216.8z"/>
<path class="st0" d="M304.7,216.8c0.3-68.3,55.8-123.5,124.1-123.5V2.8c-118.3,0-214.2,95.8-214.6,214L304.7,216.8L304.7,216.8z"/>
<path class="st0" d="M1064.7,767.3C997,767,942.2,712,942.2,644.2h-89.7c0,117.3,95,212.5,212.3,212.8L1064.7,767.3L1064.7,767.3z"
	/>
<path class="st0" d="M852.5,521.1c67.7,0.3,122.5,55.3,122.5,123.1h89.7c0-117.3-95-212.5-212.3-212.8V521.1L852.5,521.1z"/>
<path class="st0" d="M1064.7,733.9c67.7,0.3,122.5,55.3,122.5,123.1h89.7c0-117.3-95-212.5-212.3-212.8L1064.7,733.9L1064.7,733.9z"
	/>
<path class="st0" d="M1277,554.4c-67.7-0.3-122.5-55.3-122.5-123.1h-89.7c0,117.4,95,212.5,212.3,212.8L1277,554.4L1277,554.4z"/>
</svg>
