<?xml version="1.0" encoding="utf-8"?>
<svg version="1.1" id="Layer_1" xmlns="http://www.w3.org/2000/svg" xmlns:xlink="http://www.w3.org/1999/xlink" x="0px" y="0px"
	 viewBox="0 0 1292 1292" style="enable-background:new 0 0 1292 1292;" xml:space="preserve">
<style type="text/css">
	.st0{opacity:8.000000e-02;fill:none;stroke:#261010;stroke-miterlimit:10;enable-background:new    ;}
</style>
<path class="st0" d="M1286.3,843.4c-58.1-0.3-105.1-47.5-105.1-105.6h-77c0,100.6,81.5,182.3,182.1,182.5V843.4L1286.3,843.4z"/>
<path class="st0" d="M739.4,631.9c58.1,0.3,105.1,47.5,105.1,105.6h77c0-100.6-81.5-182.3-182.1-182.5V631.9L739.4,631.9z"/>
<path class="st0" d="M1286.3,660.6c-58.1-0.3-105.1-47.5-105.1-105.6h-77c0,100.6,81.5,182.3,182.1,182.5V660.6L1286.3,660.6z"/>
<path class="st0" d="M1209.5,919.5c-0.3,58.1-47.5,105.1-105.6,105.1v77c100.6,0,182.3-81.5,182.5-182.1L1209.5,919.5L1209.5,919.5z
	"/>
<path class="st0" d="M1104,842.7c-58.1-0.3-105.1-47.5-105.1-105.6h-77c0,100.6,81.5,182.3,182.1,182.5L1104,842.7L1104,842.7z"/>
<path class="st0" d="M1027.3,555.1c-0.3,58.1-47.5,105.1-105.6,105.1v77c100.6,0,182.3-81.5,182.5-182.1L1027.3,555.1L1027.3,555.1z
	"/>
<path class="st0" d="M294.9,737.2c-0.3,58.1-47.4,105.1-105.5,105.1v77c100.6,0,182.3-81.5,182.5-182.1H294.9L294.9,737.2z"/>
<path class="st0" d="M1027.1,919.5c-0.3,58.1-47.5,105.1-105.6,105.1v77c100.6,0,182.3-81.5,182.5-182.1L1027.1,919.5L1027.1,919.5z
	"/>
<path class="st0" d="M814.2,1102.5c0.3-58.1,47.5-105.1,105.6-105.1v-77c-100.6,0-182.3,81.5-182.5,182.1H814.2L814.2,1102.5z"/>
<path class="st0" d="M919.5,1207.5c-58.1-0.3-105.1-47.5-105.1-105.6h-77c0,100.6,81.5,182.3,182.1,182.5V1207.5L919.5,1207.5z"/>
<path class="st0" d="M1207.5,1102.2c-0.3,58.1-47.5,105.1-105.6,105.1v77c100.6,0,182.3-81.5,182.5-182.1H1207.5L1207.5,1102.2z"/>
<path class="st0" d="M921.7,1178.9c58.1,0.3,105.1,47.5,105.1,105.6h77c0-100.6-81.5-182.3-182.1-182.5V1178.9L921.7,1178.9z"/>
<path class="st0" d="M661.9,555.1c-0.3,58.1-47.5,105.1-105.6,105.1v77c100.6,0,182.3-81.5,182.5-182.1L661.9,555.1L661.9,555.1z"/>
<path class="st0" d="M556,660.5c-58.1-0.3-105.1-47.5-105.1-105.6h-77c0,100.6,81.5,182.3,182.1,182.5V660.5L556,660.5z"/>
<path class="st0" d="M268.1,737.2c0.3-58.1,47.5-105.1,105.6-105.1v-77c-100.7,0-182.4,81.5-182.6,182.1H268.1L268.1,737.2z"/>
<path class="st0" d="M844.6,737.2c-0.3,58.1-47.5,105.1-105.6,105.1v77c100.6,0,182.3-81.5,182.5-182.1H844.6L844.6,737.2z"/>
<path class="st0" d="M372.2,814c58.1,0.3,105.1,47.5,105.1,105.6h77c0-100.6-81.5-182.3-182.1-182.5V814L372.2,814z"/>
<path class="st0" d="M660.1,737.2c-0.3,58.1-47.5,105.1-105.6,105.1v77c100.6,0,182.3-81.5,182.5-182.1H660.1L660.1,737.2z"/>
<path class="st0" d="M374.3,997.2c58.1,0.3,105.1,47.5,105.1,105.6h77c0-100.6-81.5-182.3-182.1-182.5L374.3,997.2L374.3,997.2z"/>
<path class="st0" d="M479.5,1102.7c-0.3,58.1-47.5,105.1-105.6,105.1v77c100.6,0,182.3-81.5,182.5-182.1H479.5L479.5,1102.7z"/>
<path class="st0" d="M268.4,1102.5c0.3-58.1,47.5-105.1,105.6-105.1v-77c-100.6,0-182.3,81.5-182.5,182.1H268.4L268.4,1102.5z"/>
<path class="st0" d="M661,1102.1c-0.3,58.1-47.5,105.1-105.6,105.1v77c100.6,0,182.3-81.5,182.5-182.1H661L661,1102.1z"/>
<path class="st0" d="M634.1,1102.5c0.3-58.1,47.5-105.1,105.6-105.1v-77c-100.6,0-182.3,81.5-182.5,182.1H634.1L634.1,1102.5z"/>
<path class="st0" d="M191.4,1178.9c58.1,0.3,105.1,47.5,105.1,105.5h77c0-100.6-81.5-182.3-182.1-182.5L191.4,1178.9L191.4,1178.9z"
	/>
<path class="st0" d="M450.4,554.8c0.3-58.1,47.5-105.1,105.6-105.1v-77c-100.6,0-182.3,81.5-182.5,182.1H450.4L450.4,554.8z"/>
<path class="st0" d="M373.8,266.3c58.1,0.3,105.1,47.5,105.1,105.6h77c0-100.6-81.5-182.3-182.1-182.5V266.3L373.8,266.3z"/>
<path class="st0" d="M296.4,189.6c-0.3,58.1-47.5,105.1-105.6,105.1v77c100.6,0,182.3-81.5,182.5-182.1L296.4,189.6L296.4,189.6z"/>
<path class="st0" d="M270.4,554.8c0.3-58.1,47.5-105.1,105.6-105.1v-77c-100.6,0-182.3,81.5-182.5,182.1H270.4L270.4,554.8z"/>
<path class="st0" d="M662,372.7c-0.3,58.1-47.4,105.1-105.5,105.1v77c100.6,0,182.3-81.5,182.5-182.1H662L662,372.7z"/>
<path class="st0" d="M816,554.8c0.3-58.1,47.5-105.1,105.6-105.1v-77c-100.6,0-182.3,81.5-182.5,182.1H816L816,554.8z"/>
<path class="st0" d="M1027.2,372.7c-0.3,58.1-47.5,105.1-105.6,105.1v77c100.6,0,182.3-81.5,182.5-182.1H1027.2L1027.2,372.7z"/>
<path class="st0" d="M846.2,189.1c-0.3,58.1-47.5,105.1-105.6,105.1v77c100.6,0,182.3-81.5,182.5-182.1L846.2,189.1L846.2,189.1z"/>
<path class="st0" d="M633.3,372.1C633.5,314,680.7,267,738.9,267v-77c-100.6,0-182.3,81.5-182.5,182.1H633.3L633.3,372.1z"/>
<path class="st0" d="M1180.9,372c0.3-58.1,47.5-105.1,105.6-105.1v-77c-100.6,0-182.3,81.5-182.5,182.1H1180.9L1180.9,372z"/>
<path class="st0" d="M921.9,265.9c58.1,0.3,105.1,47.5,105.1,105.6h77c0-100.6-81.5-182.3-182.1-182.5L921.9,265.9L921.9,265.9z"/>
<path class="st0" d="M1209.1,372.4c-0.3,58.1-47.4,105.1-105.5,105.1v77c100.6,0,182.3-81.5,182.5-182.1H1209.1L1209.1,372.4z"/>
<path class="st0" d="M6.8,631.9c58.1,0.3,105.1,47.5,105.1,105.6h77c0-100.6-81.5-182.3-182.1-182.5L6.8,631.9L6.8,631.9z"/>
<path class="st0" d="M82.4,1101.4c0.3-58.1,47.5-105.1,105.6-105.1v-77c-100.6,0-182.3,81.5-182.5,182.1H82.4L82.4,1101.4z"/>
<path class="st0" d="M187.8,1207.5c-58.1-0.3-105.1-47.5-105.1-105.6h-77c0,100.6,81.5,182.3,182.1,182.5V1207.5L187.8,1207.5z"/>
<path class="st0" d="M112.9,737.2c-0.3,58.1-47.5,105.1-105.6,105.1v77c100.6,0,182.3-81.5,182.5-182.1H112.9L112.9,737.2z"/>
<path class="st0" d="M85.3,554.8c0.3-58.1,47.5-105.1,105.6-105.1v-77C90.2,372.7,8.6,454.2,8.4,554.8H85.3L85.3,554.8z"/>
<path class="st0" d="M115.5,189.1c-0.3,58.1-47.5,105.1-105.6,105.1v77c100.6,0,182.3-81.5,182.5-182.1L115.5,189.1L115.5,189.1z"/>
<path class="st0" d="M1209.5,6.4c-0.3,58.1-47.5,105.1-105.6,105.1v77c100.6,0,182.3-81.5,182.5-182.1L1209.5,6.4L1209.5,6.4z"/>
<path class="st0" d="M1027.1,6.4c-0.3,58.1-47.5,105.1-105.6,105.1v77c100.6,0,182.3-81.5,182.5-182.1L1027.1,6.4L1027.1,6.4z"/>
<path class="st0" d="M814.2,189.4c0.3-58.1,47.5-105.1,105.6-105.1v-77c-100.6,0-182.3,81.5-182.5,182.1H814.2L814.2,189.4z"/>
<path class="st0" d="M374.3,84.1c58.1,0.3,105.1,47.5,105.1,105.6h77C556.4,89.1,475,7.5,374.3,7.2L374.3,84.1L374.3,84.1z"/>
<path class="st0" d="M268.4,189.4c0.3-58.1,47.5-105.1,105.6-105.1v-77c-100.6,0-182.3,81.5-182.5,182.1H268.4L268.4,189.4z"/>
<path class="st0" d="M634.1,189.4c0.3-58.1,47.5-105.1,105.6-105.1v-77c-100.6,0-182.3,81.5-182.5,182.1H634.1L634.1,189.4z"/>
<path class="st0" d="M82.4,188.3C82.7,130.3,129.9,83.2,188,83.2v-77C87.4,6.2,5.7,87.7,5.5,188.3H82.4L82.4,188.3z"/>
</svg>
